<svg width="52" height="52" viewBox="0 0 52 52" fill="none" xmlns="http://www.w3.org/2000/svg">
<path fill-rule="evenodd" clip-rule="evenodd" d="M44.9574 0C48.847 0 52 3.15308 52 7.04258V44.603C52 48.4926 48.847 51.6456 44.9574 51.6456H7.39701C3.50751 51.6456 0.354431 48.4926 0.354431 44.603V7.04258C0.354431 3.15308 3.50751 0 7.39701 0H44.9574ZM44.9574 4.69505C46.254 4.69505 47.3049 5.74609 47.3049 7.04258V44.603C47.3049 45.8995 46.254 46.9505 44.9574 46.9505H33.2198V30.5176H38.0937C39.1041 30.5176 40.0011 29.8711 40.3208 28.9124L41.3608 25.7925C41.7408 24.6523 40.8922 23.475 39.6905 23.475H33.2198V18.78C33.2198 17.6063 34.3936 16.4325 35.5673 16.4325H40.2624C41.5589 16.4325 42.6099 15.3815 42.6099 14.085V12.4746C42.6099 11.7163 42.1256 11.0364 41.3922 10.8429C38.3151 10.0309 35.5673 10.0309 35.5673 10.0309C29.6985 10.0309 26.1772 14.085 26.1772 17.6063V23.475H21.4822C20.1857 23.475 19.1346 24.526 19.1346 25.8225V28.1701C19.1346 29.4666 20.1856 30.5176 21.4822 30.5176H26.1772V46.9505H7.39701C6.10052 46.9505 5.04948 45.8995 5.04948 44.603V7.04258C5.04948 5.74609 6.10052 4.69505 7.39701 4.69505H44.9574Z" fill="#83593B"/>
</svg>
