<svg width="52" height="52" viewBox="0 0 52 52" fill="none" xmlns="http://www.w3.org/2000/svg">
<path fill-rule="evenodd" clip-rule="evenodd" d="M26 39.9076C33.779 39.9076 40.0852 33.6015 40.0852 25.8225C40.0852 18.0434 33.779 11.7373 26 11.7373C18.221 11.7373 11.9149 18.0434 11.9149 25.8225C11.9149 33.6015 18.221 39.9076 26 39.9076ZM26 35.2126C31.1859 35.2126 35.3901 31.0084 35.3901 25.8225C35.3901 20.6364 31.1859 16.4324 26 16.4324C20.814 16.4324 16.6099 20.6364 16.6099 25.8225C16.6099 31.0084 20.814 35.2126 26 35.2126Z" fill="#83593B"/>
<path fill-rule="evenodd" clip-rule="evenodd" d="M1.71243 7.69064C0.177246 10.7036 0.177246 14.6478 0.177246 22.5362V29.1093C0.177246 36.9977 0.177246 40.942 1.71243 43.9548C3.06282 46.6052 5.21757 48.76 7.86788 50.1103C10.8809 51.6456 14.8251 51.6456 22.7135 51.6456H29.2866C37.175 51.6456 41.1193 51.6456 44.1321 50.1103C46.7824 48.76 48.9372 46.6052 50.2875 43.9548C51.8228 40.942 51.8228 36.9977 51.8228 29.1093V22.5362C51.8228 14.6478 51.8228 10.7036 50.2875 7.69064C48.9372 5.04033 46.7824 2.88558 44.1321 1.53519C41.1193 0 37.175 0 29.2866 0H22.7135C14.8251 0 10.8809 0 7.86788 1.53519C5.21757 2.88558 3.06282 5.04033 1.71243 7.69064ZM29.2866 4.69505H22.7135C18.6918 4.69505 15.9579 4.69871 13.8447 4.87135C11.7863 5.03953 10.7337 5.34435 9.99939 5.7185C8.23252 6.61878 6.79602 8.05528 5.89575 9.82214C5.5216 10.5564 5.21677 11.6091 5.0486 13.6675C4.87596 15.7807 4.8723 18.5146 4.8723 22.5362V29.1093C4.8723 33.1311 4.87596 35.8648 5.0486 37.978C5.21677 40.0366 5.5216 41.0892 5.89575 41.8235C6.79602 43.5903 8.23252 45.0267 9.99939 45.927C10.7337 46.3012 11.7863 46.6061 13.8447 46.7742C15.9579 46.9468 18.6918 46.9505 22.7135 46.9505H29.2866C33.3083 46.9505 36.042 46.9468 38.1553 46.7742C40.2138 46.6061 41.2665 46.3012 42.0008 45.927C43.7675 45.0267 45.204 43.5903 46.1042 41.8235C46.4784 41.0892 46.7834 40.0366 46.9515 37.978C47.124 35.8648 47.1278 33.1311 47.1278 29.1093V22.5362C47.1278 18.5146 47.124 15.7807 46.9515 13.6675C46.7834 11.6091 46.4784 10.5564 46.1042 9.82214C45.204 8.05528 43.7675 6.61878 42.0008 5.7185C41.2665 5.34435 40.2138 5.03953 38.1553 4.87135C36.042 4.69871 33.3083 4.69505 29.2866 4.69505Z" fill="#83593B"/>
</svg>
