<svg width="259" height="81" viewBox="0 0 259 81" fill="none" xmlns="http://www.w3.org/2000/svg">
<path d="M86.84 63.674C84.6 63.674 82.7867 62.8606 81.4 61.234C80.04 59.6073 79.36 57.4206 79.36 54.674C79.36 52.274 79.8533 49.794 80.84 47.234C81.8267 44.6473 83.0933 42.354 84.64 40.354C86.1867 38.354 87.9467 36.714 89.92 35.434C91.8933 34.154 93.8 33.514 95.64 33.514C97.16 33.514 98.3467 33.994 99.2 34.954C100.08 35.8873 100.52 37.0873 100.52 38.554C100.52 40.4206 100.04 42.2206 99.08 43.954C98.12 45.6606 97.0533 46.514 95.88 46.514C94.84 46.514 94.08 45.874 93.6 44.594C94.5067 43.8473 95.2933 42.8873 95.96 41.714C96.6533 40.5406 97 39.4606 97 38.474C97 37.434 96.5333 36.914 95.6 36.914C94.5867 36.914 93.4267 37.434 92.12 38.474C90.8133 39.4873 89.5867 40.794 88.44 42.394C87.2933 43.9673 86.32 45.8606 85.52 48.074C84.7467 50.2606 84.36 52.394 84.36 54.474C84.36 56.3406 84.76 57.7406 85.56 58.674C86.36 59.5806 87.4267 60.034 88.76 60.034C90.2533 60.034 91.84 59.4873 93.52 58.394C95.2267 57.3006 96.72 55.9806 98 54.434C99.3067 52.8873 100.387 51.3006 101.24 49.674L101.32 49.474C101.587 49.474 101.867 49.5806 102.16 49.794C102.48 49.9806 102.667 50.194 102.72 50.434L102.6 50.714C101.773 52.314 100.8 53.8606 99.68 55.354C98.56 56.8473 97.32 58.234 95.96 59.514C94.6267 60.7673 93.16 61.7806 91.56 62.554C89.96 63.3006 88.3867 63.674 86.84 63.674ZM122.672 49.474C122.938 49.474 123.218 49.5806 123.512 49.794C123.832 49.9806 124.018 50.194 124.072 50.434L123.912 50.714C123.858 50.8473 123.765 51.0473 123.632 51.314C123.178 52.2473 122.805 52.9806 122.512 53.514C122.245 54.0206 121.832 54.7673 121.272 55.754C120.738 56.7406 120.258 57.5406 119.832 58.154C119.432 58.7406 118.925 59.4206 118.312 60.194C117.698 60.9673 117.125 61.5806 116.592 62.034C116.058 62.4606 115.458 62.834 114.792 63.154C114.152 63.4473 113.512 63.594 112.872 63.594C111.778 63.594 110.885 63.1806 110.192 62.354C109.525 61.5273 109.192 60.4073 109.192 58.994C107.032 62.0873 104.845 63.634 102.632 63.634C101.538 63.634 100.645 63.194 99.9516 62.314C99.2582 61.434 98.9116 60.1806 98.9116 58.554C98.9116 57.274 99.1516 55.8606 99.6316 54.314C100.138 52.7673 100.658 51.1806 101.192 49.554C101.752 47.9006 102.072 46.3673 102.152 44.954C103.298 44.9006 104.245 45.1006 104.992 45.554C105.765 45.9806 106.152 46.7006 106.152 47.714C106.152 48.594 105.658 50.3673 104.672 53.034C103.685 55.7006 103.192 57.554 103.192 58.594C103.192 59.6873 103.565 60.234 104.312 60.234C104.952 60.234 105.658 59.8206 106.432 58.994C107.205 58.1406 107.845 57.2873 108.352 56.434C108.858 55.554 109.325 54.6606 109.752 53.754C111.298 50.5806 112.152 47.6606 112.312 44.994C114.898 45.0206 116.192 45.954 116.192 47.794C116.192 48.514 115.698 50.2073 114.712 52.874C113.752 55.514 113.272 57.3806 113.272 58.474C113.272 59.6473 113.632 60.234 114.352 60.234C114.992 60.234 115.725 59.834 116.552 59.034C117.405 58.2073 118.245 57.1273 119.072 55.794C119.925 54.4606 120.605 53.3406 121.112 52.434C121.618 51.5273 122.112 50.6073 122.592 49.674L122.672 49.474ZM133.279 44.554C134.452 44.554 135.332 45.0206 135.919 45.954C136.532 46.8606 136.839 48.0206 136.839 49.434C136.839 51.434 136.345 53.554 135.359 55.794C134.399 58.0073 133.132 59.8873 131.559 61.434C129.985 62.954 128.399 63.714 126.799 63.714C126.025 63.714 125.345 63.5006 124.759 63.074C124.172 62.6206 123.745 61.9806 123.479 61.154C123.079 62.4073 122.732 63.5673 122.439 64.634C120.599 70.714 119.679 74.9806 119.679 77.434C116.932 77.834 115.559 77.0073 115.559 74.954C115.559 74.5006 115.625 73.9406 115.759 73.274C115.865 72.634 116.079 71.7406 116.399 70.594C116.719 69.474 117.039 68.394 117.359 67.354C117.679 66.3406 118.145 64.834 118.759 62.834C119.372 60.834 119.905 59.0606 120.359 57.514C122.252 51.2206 123.292 47.0206 123.479 44.914C126.039 44.9673 127.319 45.7673 127.319 47.314C127.319 47.7673 127.199 48.3406 126.959 49.034C128.025 47.514 129.105 46.394 130.199 45.674C131.292 44.9273 132.319 44.554 133.279 44.554ZM126.399 60.354C127.279 60.354 128.185 59.7273 129.119 58.474C130.052 57.2206 130.799 55.794 131.359 54.194C131.919 52.594 132.199 51.234 132.199 50.114C132.199 48.834 131.759 48.194 130.879 48.194C130.079 48.194 129.212 48.7673 128.279 49.914C127.372 51.034 126.612 52.3806 125.999 53.954C125.385 55.5273 125.079 56.914 125.079 58.114C125.079 59.6073 125.519 60.354 126.399 60.354ZM166.533 57.674C167.866 59.0606 169.266 60.194 170.733 61.074C170.493 61.8473 170.106 62.4606 169.573 62.914C169.04 63.3673 168.4 63.594 167.653 63.594C166.533 63.594 165.106 62.6073 163.373 60.634C160.6 62.714 157.826 63.754 155.053 63.754C152.786 63.754 150.96 63.0873 149.573 61.754C148.186 60.4206 147.493 58.7673 147.493 56.794C147.493 52.3673 150.24 48.474 155.733 45.114C155.466 43.914 155.333 42.8073 155.333 41.794C155.333 38.914 156.146 36.5673 157.773 34.754C159.4 32.914 161.413 31.994 163.813 31.994C165.44 31.994 166.72 32.4473 167.653 33.354C168.586 34.2606 169.053 35.3806 169.053 36.714C169.053 37.5406 168.866 38.354 168.493 39.154C168.12 39.9273 167.666 40.634 167.133 41.274C166.626 41.8873 165.92 42.554 165.013 43.274C164.133 43.994 163.333 44.594 162.613 45.074C161.893 45.554 160.986 46.1273 159.893 46.794C160.933 49.7006 162.373 52.4206 164.213 54.954C165.786 52.4473 166.4 50.0206 166.053 47.674C166.773 47.2473 167.386 47.034 167.893 47.034C168.56 47.034 169.08 47.3006 169.453 47.834C169.826 48.3406 170.013 48.994 170.013 49.794C170.013 52.354 168.853 54.9806 166.533 57.674ZM163.573 34.714C162.266 34.714 161.146 35.434 160.213 36.874C159.28 38.2873 158.813 39.8206 158.813 41.474C158.813 42.0073 158.866 42.6073 158.973 43.274C160.946 42.1273 162.493 41.0206 163.613 39.954C164.76 38.8606 165.333 37.7273 165.333 36.554C165.333 35.994 165.16 35.554 164.813 35.234C164.493 34.8873 164.08 34.714 163.573 34.714ZM155.973 60.594C157.786 60.594 159.626 59.7806 161.493 58.154C159.52 55.2473 157.946 52.1406 156.773 48.834C153.493 51.314 151.853 53.8473 151.853 56.434C151.853 57.7673 152.24 58.794 153.013 59.514C153.786 60.234 154.773 60.594 155.973 60.594ZM192.348 63.674C190.108 63.674 188.294 62.8606 186.908 61.234C185.548 59.6073 184.868 57.4206 184.868 54.674C184.868 52.274 185.361 49.794 186.348 47.234C187.334 44.6473 188.601 42.354 190.148 40.354C191.694 38.354 193.454 36.714 195.428 35.434C197.401 34.154 199.308 33.514 201.148 33.514C202.668 33.514 203.854 33.994 204.708 34.954C205.588 35.8873 206.028 37.0873 206.028 38.554C206.028 40.4206 205.548 42.2206 204.588 43.954C203.628 45.6606 202.561 46.514 201.388 46.514C200.348 46.514 199.588 45.874 199.108 44.594C200.014 43.8473 200.801 42.8873 201.468 41.714C202.161 40.5406 202.508 39.4606 202.508 38.474C202.508 37.434 202.041 36.914 201.108 36.914C200.094 36.914 198.934 37.434 197.628 38.474C196.321 39.4873 195.094 40.794 193.948 42.394C192.801 43.9673 191.828 45.8606 191.028 48.074C190.254 50.2606 189.868 52.394 189.868 54.474C189.868 56.3406 190.268 57.7406 191.068 58.674C191.868 59.5806 192.934 60.034 194.268 60.034C195.761 60.034 197.348 59.4873 199.028 58.394C200.734 57.3006 202.228 55.9806 203.508 54.434C204.814 52.8873 205.894 51.3006 206.748 49.674L206.828 49.474C207.094 49.474 207.374 49.5806 207.668 49.794C207.988 49.9806 208.174 50.194 208.228 50.434L208.108 50.714C207.281 52.314 206.308 53.8606 205.188 55.354C204.068 56.8473 202.828 58.234 201.468 59.514C200.134 60.7673 198.668 61.7806 197.068 62.554C195.468 63.3006 193.894 63.674 192.348 63.674ZM223.779 49.474C224.019 49.474 224.286 49.5806 224.579 49.794C224.899 49.9806 225.086 50.194 225.139 50.434L225.019 50.714C222.939 54.874 220.033 57.834 216.299 59.594C215.419 60.9006 214.366 61.9406 213.139 62.714C211.939 63.4606 210.739 63.834 209.539 63.834C207.939 63.834 206.673 63.2206 205.739 61.994C204.833 60.7406 204.379 59.154 204.379 57.234C204.379 55.2073 204.833 53.2073 205.739 51.234C206.646 49.2606 207.873 47.6473 209.419 46.394C210.993 45.114 212.646 44.474 214.379 44.474C215.686 44.474 216.779 44.8206 217.659 45.514C218.566 46.1806 219.019 46.9806 219.019 47.914C219.019 48.8473 218.606 49.5006 217.779 49.874C218.206 50.6206 218.419 51.5673 218.419 52.714C218.419 54.1006 218.193 55.4473 217.739 56.754C220.059 55.234 222.033 52.874 223.659 49.674L223.779 49.474ZM209.979 60.394C210.646 60.394 211.326 59.954 212.019 59.074C212.713 58.194 213.273 57.1273 213.699 55.874C214.126 54.6206 214.339 53.4473 214.339 52.354C214.339 51.314 214.113 50.4606 213.659 49.794C214.379 49.0206 215.099 48.6206 215.819 48.594C215.446 48.0873 214.939 47.834 214.299 47.834C213.313 47.834 212.339 48.394 211.379 49.514C210.446 50.634 209.713 51.9406 209.179 53.434C208.673 54.9273 208.419 56.314 208.419 57.594C208.419 58.474 208.566 59.1673 208.859 59.674C209.153 60.154 209.526 60.394 209.979 60.394ZM241.933 49.474C242.2 49.474 242.48 49.5806 242.773 49.794C243.093 49.9806 243.28 50.194 243.333 50.434L243.173 50.714C243.093 50.9273 242.947 51.2473 242.733 51.674C242.253 52.5806 241.88 53.3006 241.613 53.834C241.373 54.3406 240.987 55.074 240.453 56.034C239.92 56.9673 239.453 57.7273 239.053 58.314C238.68 58.874 238.2 59.5273 237.613 60.274C237.027 61.0206 236.48 61.6073 235.973 62.034C235.493 62.434 234.947 62.7806 234.333 63.074C233.72 63.3673 233.12 63.514 232.533 63.514C231.653 63.514 230.947 63.194 230.413 62.554C229.88 61.8873 229.627 61.0473 229.653 60.034C228.08 62.4073 226.453 63.594 224.773 63.594C223.573 63.594 222.64 63.0873 221.973 62.074C221.333 61.034 221.013 59.6873 221.013 58.034C221.013 56.1406 221.427 54.1673 222.253 52.114C223.107 50.0606 224.253 48.3273 225.693 46.914C227.16 45.474 228.667 44.754 230.213 44.754C231.68 44.754 232.68 45.3673 233.213 46.594C234.733 40.7006 235.68 36.5673 236.053 34.194C237.2 34.3006 238.2 34.554 239.053 34.954C239.907 35.3273 240.333 35.9006 240.333 36.674C240.333 37.3673 239.813 39.314 238.773 42.514C237.733 45.6873 236.693 48.9406 235.653 52.274C234.64 55.6073 234.133 57.794 234.133 58.834C234.133 59.6073 234.347 59.994 234.773 59.994C236.027 59.994 238.387 56.554 241.853 49.674L241.933 49.474ZM226.693 59.954C227.44 59.954 228.227 59.314 229.053 58.034C229.907 56.754 230.587 55.3406 231.093 53.794C231.627 52.2473 231.893 50.994 231.893 50.034C231.893 49.5006 231.787 49.0873 231.573 48.794C231.36 48.474 231.08 48.314 230.733 48.314C229.933 48.314 229.107 48.8873 228.253 50.034C227.4 51.1806 226.707 52.514 226.173 54.034C225.667 55.554 225.413 56.874 225.413 57.994C225.413 59.3006 225.84 59.954 226.693 59.954ZM256.777 49.474C257.017 49.474 257.283 49.5806 257.577 49.794C257.897 49.9806 258.083 50.194 258.137 50.434L258.017 50.714C257.43 51.8606 256.803 52.9806 256.137 54.074C255.497 55.1406 254.723 56.274 253.817 57.474C252.91 58.6473 251.99 59.674 251.057 60.554C250.15 61.434 249.137 62.1673 248.017 62.754C246.897 63.314 245.79 63.594 244.697 63.594C243.123 63.594 241.843 63.0206 240.857 61.874C239.87 60.7006 239.377 59.154 239.377 57.234C239.377 55.9006 239.63 54.514 240.137 53.074C240.67 51.6073 241.363 50.2606 242.217 49.034C243.097 47.7806 244.177 46.754 245.457 45.954C246.737 45.1273 248.07 44.714 249.457 44.714C250.763 44.714 251.843 45.0873 252.697 45.834C253.577 46.554 254.017 47.4873 254.017 48.634C254.017 49.7273 253.657 50.7673 252.937 51.754C252.243 52.714 251.35 53.5273 250.257 54.194C249.163 54.834 248.057 55.3673 246.937 55.794C245.817 56.194 244.75 56.4606 243.737 56.594C243.71 56.7806 243.697 56.9673 243.697 57.154C243.697 58.0873 243.897 58.8073 244.297 59.314C244.723 59.8206 245.297 60.074 246.017 60.074C247.137 60.074 248.417 59.4873 249.857 58.314C251.323 57.1406 252.63 55.7806 253.777 54.234C254.95 52.6873 255.91 51.1673 256.657 49.674L256.777 49.474ZM249.177 48.074C248.27 48.074 247.337 48.7006 246.377 49.954C245.443 51.1806 244.723 52.594 244.217 54.194C245.923 53.7406 247.35 53.0206 248.497 52.034C249.67 51.0473 250.257 50.1006 250.257 49.194C250.257 48.874 250.163 48.6073 249.977 48.394C249.79 48.1806 249.523 48.074 249.177 48.074Z" fill="white"/>
<path fill-rule="evenodd" clip-rule="evenodd" d="M39.0301 31.2451C35.5352 31.0378 35.0917 30.8823 31.9243 31.046C31.9118 28.4749 31.1715 28.6642 32.2343 28.5994C35.4434 28.4035 35.7566 28.3862 38.7643 28.5423C38.7463 29.6473 38.7536 30.2831 39.0301 31.2451ZM10.3323 37.3606C10.7837 37.957 11.0478 39.2633 13.106 40.6102C19.6465 44.8907 30.2634 45.1736 37.8618 44.6528C39.2253 44.5595 46.1241 43.614 47.5868 42.6588C46.5423 42.5405 45.2911 43.1264 44.1896 43.3344C40.2118 44.0857 37.2301 44.3008 33.0795 44.1111C28.7495 43.9133 17.6616 42.5418 15.9483 37.3544C15.3232 35.4611 16.7527 34.1563 17.5294 33.3221C19.827 30.854 28.3876 28.5302 30.6574 28.8189C31.0489 29.52 31.4658 30.3505 31.4008 31.177C29.8965 30.728 16.4632 33.0654 16.4357 36.5502C16.4279 37.5252 17.2937 38.1009 17.8791 38.4686C18.7144 38.9932 18.9584 39.4495 19.6364 40.0301C21.8128 41.8942 26.5569 42.9923 29.9857 43.1562C32.3362 43.2686 40.5597 43.1435 42.4097 42.3058C43.0566 42.013 43.7621 41.2631 44.0631 40.455C44.5354 39.1862 43.8395 38.6842 43.0895 38.2957C40.8529 37.1369 36.4891 38.1509 35.0844 39.0976C34.1217 39.7465 33.9774 39.8861 32.5537 39.821C29.4446 39.679 29.3629 37.8128 30.6232 36.5886C32.3567 34.9048 38.8351 34.183 41.6667 34.2029C46.0051 34.2333 49.2389 35.1986 53.2267 36.17C51.3266 34.2225 42.3918 31.5323 39.3014 31.337C39.207 30.1713 39.3705 29.6457 39.41 28.5831C42.4556 28.6438 45.8152 29.7374 46.9193 29.6206C46.5043 29.3548 45.752 29.18 45.2421 29.0685C44.6365 28.9362 44.0319 28.7847 43.4145 28.6717C42.1501 28.4403 40.8881 28.2663 39.6131 28.116C40.0781 26.1041 40.8592 25.5246 41.633 24.61C41.8229 24.3857 41.8506 24.2633 42.0395 24.0375C42.2429 23.7944 42.2824 23.8119 42.5022 23.5349C43.3865 22.4203 44.7667 20.5365 45.3508 18.755C46.987 13.7637 45.1486 10.0185 40.5994 9.07727L41.0676 9.60874C45.4728 13.3425 43.8312 19.1973 40.9336 23.3601C40.4665 24.0313 40.0677 24.4753 39.6524 25.4134C39.2866 26.2395 39.0879 27.2627 38.759 28.0247C37.5951 27.9857 36.3517 27.8584 35.1587 27.795C33.8617 27.7263 32.5473 27.8367 31.2813 27.7841C30.8095 27.2428 30.5118 26.3557 29.4802 25.3358C28.4969 24.3638 28.0117 24.1935 26.9465 23.5613C25.7375 22.8438 23.0458 20.9031 22.1881 19.7544C21.9657 19.4566 21.9842 19.4952 21.7422 19.2295C20.5762 17.95 19.5698 15.7346 19.5631 13.8409C19.5527 10.8421 21.1483 9.40083 22.2466 7.66097C21.5527 7.83826 21.0401 8.17305 20.525 8.47775C20.2109 8.66347 20.0743 8.762 19.7855 8.98422C15.7332 12.1027 15.3498 15.4835 18.5182 19.672C19.6221 21.1312 19.4646 20.8299 21.0354 22.0161C23.9842 24.2428 28.5142 25.3981 29.9254 27.8691C25.7991 28.1536 21.3796 28.7831 17.6819 30.1301C16.7794 30.4589 15.9909 30.7817 15.148 31.1995L12.8621 32.5255C10.2413 34.358 10.5072 35.4539 10.3326 37.3603L10.3323 37.3606Z" fill="white"/>
<path fill-rule="evenodd" clip-rule="evenodd" d="M35.2967 62.251C23.8902 62.251 16.1622 60.4731 7.06449 54.8022L3.71405 52.3427C2.17019 51.2201 2.05989 50.805 0.816328 49.3268C-0.721378 50.7275 0.0964767 55.0617 1.75171 56.5252C2.26178 56.9762 2.07954 56.7533 2.52009 57.2801C3.74213 58.7417 8.03463 60.5413 10.1006 61.2128C17.4256 63.5937 25.3182 64.3494 33.081 64.3494C42.1495 64.3494 56.6993 62.4803 64.0194 57.3884C64.6535 56.9473 65.515 56.0362 66.0359 55.3748C68.9364 51.6928 66.3113 48.539 63.0198 46.7566C61.5887 45.9817 58.8478 44.6543 57.2558 44.3944C57.4021 44.5531 57.3219 44.4907 57.5353 44.6327L62.8704 47.7577C63.2761 48.0749 63.4526 48.2815 63.8449 48.5801L65.4971 50.5142C67.7109 54.4932 62.7149 56.8677 59.7372 58.0625C53.21 60.6814 42.6727 62.251 35.2966 62.251H35.2967Z" fill="white"/>
<path fill-rule="evenodd" clip-rule="evenodd" d="M10.349 40.0124C11.3011 46.0083 12.0708 50.0886 16.3764 54.6396C16.8579 55.1483 17.4491 55.5371 17.9966 56.1176C14.5296 55.7643 9.295 53.3202 6.64878 51.0724C6.25221 50.7355 5.31069 49.4787 4.95851 48.7648C3.85574 46.5293 4.30752 44.3233 6.59008 43.449C8.25293 42.812 8.92091 43.3456 10.3309 43.3154C9.74344 42.063 8.33877 40.8122 6.94372 40.0997C4.63108 38.9185 2.53998 40.3708 1.28759 41.8733C-1.0907 44.7268 1.04827 49.1974 2.58905 50.4243C3.04511 50.7875 3.05861 50.8126 3.43404 51.2446C3.70426 51.5553 3.98784 51.7382 4.34482 51.9998C7.58589 54.3739 13.2738 55.8829 17.2312 56.1346C18.852 56.2377 19.4306 57.3318 21.807 58.3668C29.0505 61.5216 40.1295 61.429 46.7374 57.143C47.4346 56.6908 49.1389 55.5251 49.6348 54.907C50.4105 53.9402 50.6133 54.1249 51.2661 53.2064C51.4569 52.9379 51.4234 53.0116 51.6364 52.7471C53.7885 50.0734 55.175 46.1437 55.4611 42.0894L55.4909 39.4725L54.932 41.9391C54.2055 45.944 52.9947 49.0592 50.6042 52.2803L48.7493 54.293L45.6357 56.5685C41.6494 58.8147 36.7752 59.2707 32.248 58.8436C27.7209 58.4165 23.0077 56.8461 19.7311 53.9129L17.0366 51.3548C15.4381 49.2519 14.7962 48.6743 13.2975 45.8282C11.2973 42.0297 11.1143 39.8168 10.5316 38.4886L10.3488 40.0123L10.349 40.0124Z" fill="white"/>
<path fill-rule="evenodd" clip-rule="evenodd" d="M34.8041 25.73C34.9441 25.064 35.2209 24.5604 35.4021 23.8909C35.9858 21.736 35.9446 19.661 35.1724 17.5722C34.5275 15.828 33.9245 15.0913 32.9768 13.9523C32.1014 12.9001 31.6711 12.6303 31.1761 12.014C28.5518 8.74676 28.5751 4.98064 32.8197 2.93059C33.7666 2.47319 35.3942 1.85014 36.4745 1.72941C36.0587 -1.9478 30.2696 1.23779 29.1749 2.18079C26.4694 4.51148 26.2789 9.22621 28.9134 12.3266C29.8975 13.485 31.2352 14.85 32.4736 15.7002C34.4232 17.0388 34.8844 20.7291 34.8037 23.1158L34.6105 25.3372C34.7343 25.7979 34.4895 25.3594 34.8043 25.7299L34.8041 25.73Z" fill="white"/>
<path fill-rule="evenodd" clip-rule="evenodd" d="M17.2548 64.1636C26.2917 67.2761 35.8836 67.3208 45.194 65.444C45.6496 65.3522 54.5591 63.1171 54.8357 62.2961C54.8596 62.2254 54.9102 62.2267 54.9435 62.1884C53.342 62.5582 51.6988 63.181 50.0464 63.6008C41.0576 65.8847 31.7383 66.1204 22.5933 64.5881C20.9072 64.3054 19.2144 63.9847 17.5509 63.563C16.0556 63.1838 13.9151 62.3785 12.6478 62.1967L17.2546 64.1637L17.2548 64.1636Z" fill="white"/>
</svg>
