<?xml version="1.0" encoding="UTF-8"?>
<!DOCTYPE svg PUBLIC "-//W3C//DTD SVG 1.1//EN" "http://www.w3.org/Graphics/SVG/1.1/DTD/svg11.dtd">
<!-- Creator: CorelDRAW -->
<svg xmlns="http://www.w3.org/2000/svg" xml:space="preserve" width="198.362mm" height="134.941mm" version="1.1" style="shape-rendering:geometricPrecision; text-rendering:geometricPrecision; image-rendering:optimizeQuality; fill-rule:evenodd; clip-rule:evenodd"
viewBox="0 0 14937.58 10161.67"
 xmlns:xlink="http://www.w3.org/1999/xlink"
 xmlns:xodm="http://www.corel.com/coreldraw/odm/2003">
 <defs>
  <style type="text/css">
   <![CDATA[
    .fil17 {fill:#271C13}
    .fil15 {fill:#2C2219}
    .fil7 {fill:#695747}
    .fil22 {fill:#745B44}
    .fil8 {fill:#76563A}
    .fil23 {fill:#785A46}
    .fil11 {fill:#846B53}
    .fil4 {fill:#876A59}
    .fil5 {fill:#89735B}
    .fil0 {fill:#B69778}
    .fil3 {fill:#F4EADD}
    .fil2 {fill:#F9F2DD}
    .fil14 {fill:#F9F3E4}
    .fil9 {fill:#FBF3E7}
    .fil6 {fill:#FCF1E4}
    .fil19 {fill:#FCF3EA}
    .fil16 {fill:#FCF4E8}
    .fil12 {fill:#FDF1E2}
    .fil1 {fill:#FDF2E6}
    .fil18 {fill:#FDF6EA}
    .fil13 {fill:#FEF3E2}
    .fil10 {fill:#FEF4E5}
    .fil24 {fill:#FEF5E2}
    .fil20 {fill:#FFF5DE}
    .fil25 {fill:#FFF7E4}
    .fil21 {fill:#FFF8E7}
   ]]>
  </style>
 </defs>
 <g id="Camada_x0020_1">
  <metadata id="CorelCorpID_0Corel-Layer"/>
  <g id="_2298503976912">
   <path class="fil0" d="M1325.26 4436.49c6.11,-3.13 16.12,-12.74 19.39,-6.94 4.21,7.48 27.46,-9.8 40.14,-13.63 362.4,-109.7 354.73,31.04 413.45,82.56 145.87,128 357.4,52.34 433.28,-107.5l385.93 3.36c-63.37,310.71 -279.96,545.02 -624.46,558.8 -367.52,14.7 -583.99,-232.71 -667.73,-516.65zm564.41 -349.23c273.34,-142.28 424.44,299.83 184.14,406.37 -254.74,112.96 -489,-247.68 -184.14,-406.37zm-454.59 -229.2c116.8,-50.66 155.55,-143.85 336.67,-197.68 651.37,-193.56 952.77,544.08 831.7,674.98 -35.07,37.92 -326.37,1.99 -345.35,-1.94 -52.74,-161.26 -69.98,-320.56 -291.98,-315.93 -214,4.48 -230.8,148.86 -278.92,325.86 -95.37,6 -83.23,-18.77 -168.18,-8.95 -109.23,12.64 -36.43,47.17 -199.32,23.95 -60.64,-283.35 113.47,-348.07 115.38,-500.29zm0 0l-1435.08 -3858.06 1435.08 3858.06z"/>
   <path class="fil0" d="M3587.46 1569.85c267.75,-74.64 267.77,-24.74 391.91,83.72 158.28,138.29 358.46,50.72 425.76,-114.68 63.76,10.83 349.65,22.79 393.65,11.36 -98.94,699.53 -1145.02,760.22 -1290.83,43.7l79.51 -24.1zm483.75 -322.36c290.65,-119 426.19,292.91 181.27,401.25 -283.32,125.34 -469.44,-283.27 -181.27,-401.25zm-483.19 -183.34c6.29,-2.1 14.27,-6.75 17.8,-8.89 3.48,-2.11 13.08,-6.6 17.22,-9.34 115.97,-76.64 83.16,-141.63 290.44,-211.59 159.45,-53.82 328.37,-54.49 482.42,3.16 390.7,146.23 458.83,590.01 385.71,654.23 -34.01,29.87 -242.96,13.26 -338.16,9.82 -20.16,-59.44 -33.19,-330.67 -299.15,-321.49 -203.47,7.02 -233.26,150.92 -274.36,325.83 -101.82,-0.47 -101.02,-24.04 -191.18,-6.31 -102.18,20.11 -40.19,36.15 -179.03,22.18 -26.18,-211.85 74.75,-306.93 88.27,-457.61zm0 0l-3588.02 -1064.15 3588.02 1064.15z"/>
   <path class="fil1" d="M6871.64 543.36l-1308.71 -1.59c-39.87,411.95 261.47,753.48 653.94,741.49 367.54,-11.24 669.55,-351.97 654.77,-739.9z"/>
   <path class="fil1" d="M6087.91 2420.96l-1312.61 2.38c-11.61,292.02 126.99,543.62 369.3,665.55 87.35,43.96 166.45,64.54 274.82,63.38 395.67,-4.25 648.44,-329.15 668.49,-731.31z"/>
   <path class="fil1" d="M1626.49 5794.3l-1312.25 1.56c-9.65,226.19 79.39,410.84 188.03,530.35 3.51,3.86 8.91,9.57 12.5,13.31 109.96,114.74 273.97,185.35 441.6,184.01 390.94,-3.16 655.47,-320.84 670.12,-729.23z"/>
   <path class="fil1" d="M3471.8 9148.08c71.04,359.66 380.49,637.69 782.58,544.14 321.76,-74.86 605.91,-466.44 474.46,-872.5l-1257.05 328.36z"/>
   <path class="fil2" d="M1435.08 3858.06c-1.91,152.23 -176.02,216.95 -115.38,500.29 162.88,23.22 90.09,-11.32 199.32,-23.95 84.94,-9.82 72.81,14.96 168.18,8.95 48.12,-177 64.92,-321.38 278.92,-325.86 222,-4.64 239.24,154.67 291.98,315.93 18.98,3.92 310.29,39.86 345.35,1.94 121.07,-130.9 -180.32,-868.54 -831.7,-674.98 -181.12,53.83 -219.87,147.02 -336.67,197.68z"/>
   <path class="fil3" d="M3588.02 1064.15c-13.52,150.68 -114.46,245.76 -88.27,457.61 138.84,13.96 76.85,-2.08 179.03,-22.18 90.15,-17.73 89.36,5.84 191.18,6.31 41.09,-174.91 70.89,-318.81 274.36,-325.83 265.95,-9.18 278.99,262.05 299.15,321.49 95.19,3.44 304.15,20.05 338.16,-9.82 73.12,-64.22 4.99,-508 -385.71,-654.23 -154.05,-57.65 -322.97,-56.98 -482.42,-3.16 -207.28,69.96 -174.47,134.95 -290.44,211.59 -4.14,2.73 -13.74,7.23 -17.22,9.34 -3.53,2.14 -11.51,6.78 -17.8,8.89z"/>
   <path class="fil2" d="M557.88 9515.3c126.83,35.33 67.91,0.08 168.46,-18.19 116.57,-21.16 65.48,23.63 186.42,0.55 44.78,-158.85 48.99,-316.78 283.5,-320.38 97.71,-1.51 160.87,38.48 210.93,97.21 182.09,213.65 -107.32,205.82 216.1,222.1 69.91,3.52 107.14,36.74 175.58,10.91 135.75,-51.24 1.96,-568.93 -411.22,-689.44 -581.95,-169.72 -951.17,437.09 -829.77,697.25z"/>
   <path class="fil2" d="M3426.99 6779.6c97.33,-148.62 37.76,-316.53 292.65,-328.78 217.43,-10.44 263.88,127.62 287.61,318.89 113.43,9.35 113.84,-16.01 203.95,-2.36 82.27,12.47 52.21,43.16 160.36,-7.81 109.79,-640.07 -941.12,-1040.54 -1259.28,-275.38 -33.01,79.36 -83.04,252.64 -11.64,299.35 74.48,48.73 105.24,-2.91 158.06,-15 100.4,-22.98 47.52,2.12 168.3,11.09z"/>
   <path class="fil2" d="M6110.14 4272.49c57.16,-183 59.89,-325.36 292.02,-318.12 242.25,7.55 206.57,178.5 292.43,322.01l344.94 -5.75c76.11,-362.67 -296.9,-708.79 -662.61,-700.37 -283.51,6.52 -525.42,197.75 -604.4,421.1 -161.79,457.53 162.52,279.63 162.89,279.55 90.73,-16.94 60.09,14.11 174.73,1.58z"/>
   <path class="fil4" d="M4728.85 8819.72c131.44,406.07 -152.7,797.64 -474.46,872.5 -402.09,93.54 -711.54,-184.48 -782.58,-544.14l1257.05 -328.36zm46.78 444.98c50.3,-146.57 55.57,-256.04 20.02,-410.23 234.97,103.38 123.83,326.87 -20.02,410.23zm-228.13 352.9c61.64,-54.65 47.12,-30.48 103.34,-107.09 270.37,-368.47 191.82,-112.17 295.98,-315.34 149.89,-292.38 -108.24,-446.73 -265.97,-431.16 -133.13,13.14 -1135.17,292.49 -1257.29,348.07 -34.52,274.65 262.92,604.95 581.5,647.79 -362,124.6 -451.35,50.76 -479.01,249.23 182.4,67.01 258.97,-73.34 426.41,-60.37 130.19,10.09 45.95,52.93 233.89,10.31 449.21,-101.88 358.14,-176.54 516.33,-231.01 61.45,-21.15 143.81,-39.62 208.53,-56.82 88.82,-23.6 129.56,-24.18 162.41,-67.28 -34.14,-179.6 -98.84,-99.06 -526.11,13.68z"/>
   <path class="fil5" d="M1554.31 6253.86c92.87,-118.28 95.57,-311.12 141.03,-397.47 173.34,158.04 11.21,313.65 -141.03,397.47zm72.18 -459.55c-14.65,408.38 -279.18,726.07 -670.12,729.23 -167.64,1.35 -331.64,-69.27 -441.6,-184.01 -3.59,-3.74 -8.99,-9.45 -12.5,-13.31 -108.63,-119.51 -197.68,-304.16 -188.03,-530.35l1312.25 -1.56zm9.81 -43.55c-43.59,-14.93 -17.51,-8.63 -67.47,-13.56 -45.02,-4.45 -137.42,0.73 -187.28,1.2 -270.34,2.57 -919.73,-17.01 -1105.28,9.87 -46.36,155.74 4.86,380.06 81.55,505.62 30.84,50.48 225.22,274.11 314.82,261.12 -128.97,27.84 -331.57,0.11 -409.11,13.49 -92.99,16.05 -77.1,42.33 -82.29,33.41 -3.14,-5.4 -11.65,7.73 -16.41,12.76 1.48,197.11 193.95,95.76 363.68,114.5 141.02,15.57 14.11,31.85 160.81,65.91 69.78,16.21 166.33,8.29 240.41,8.9 455.05,3.72 219.82,-47.73 401.45,-82.83 139.8,-27.02 289.7,20.98 421.54,-31.01 -7.55,-210.78 -108.3,-95.18 -524.4,-127.66 170.95,-53.12 182.82,-115.74 209.81,-141.76 112.64,-108.63 373.13,-76.7 388.87,-355.14 8.68,-153.39 -47.69,-189.76 -122.65,-237.01l-68.07 -37.83z"/>
   <path class="fil5" d="M6013.16 2878.68c84.02,-100.65 87.84,-292.83 145.56,-398.7 124.09,158.22 41.8,319.99 -145.56,398.7zm74.75 -457.72c-20.05,402.16 -272.81,727.06 -668.49,731.31 -108.37,1.17 -187.46,-19.42 -274.82,-63.38 -242.32,-121.93 -380.91,-373.53 -369.3,-665.55l1312.61 -2.38zm-950.83 721.27c-158.07,36.9 -418.03,-33.83 -517.22,56.37 38.8,236.42 154.48,76.03 391.48,121.5 134.2,25.75 -8.26,38.43 165.13,65.85l479.93 -8.71c133.79,-47.03 -7.29,-54.45 160.67,-73.02 284.31,-31.43 396.33,85.7 397.4,-124.03 -134.71,-57.4 -356.33,-18.3 -521.38,-30.4 150.99,-50.16 162.38,-96.38 194.84,-129.32 59.01,-59.87 580.51,-206.55 363.9,-531.56l-72.12 -61.93c-6.33,-4.37 -24.24,-16.7 -30.9,-20.74 -157.4,-95.34 -479,-40.64 -676.26,-40.54 -220.54,0.11 -526.55,-16.63 -736.71,8.1 -111.13,398.63 295.63,784.96 401.23,768.42z"/>
   <path class="fil6" d="M3078.71 6841.53c29.88,146.78 69.33,239.78 161,331.84l27.12 25.82c438.15,418.75 1111.57,40.57 1099.03,-381.79l-376.87 -5.44c-116.88,228.95 -325.09,209.73 -431.32,124.17 -135.46,-109.1 17.07,-110.58 -221.58,-122 -120.16,-5.75 -99.1,36.94 -257.37,27.4z"/>
   <path class="fil6" d="M1798.25 4498.48c-58.72,-51.52 -51.05,-192.27 -413.45,-82.56 -12.68,3.83 -35.93,21.11 -40.14,13.63 -3.27,-5.8 -13.28,3.81 -19.39,6.94 83.75,283.94 300.22,531.35 667.73,516.65 344.5,-13.78 561.09,-248.09 624.46,-558.8l-385.93 -3.36c-75.88,159.83 -287.41,235.49 -433.28,107.5z"/>
   <path class="fil6" d="M3507.95 1593.95c145.81,716.52 1191.89,655.83 1290.83,-43.7 -43.99,11.43 -329.89,-0.53 -393.65,-11.36 -67.3,165.4 -267.47,252.97 -425.76,114.68 -124.14,-108.45 -124.15,-158.36 -391.91,-83.72l-79.51 24.1z"/>
   <path class="fil6" d="M1841.28 9552.98c-73.93,7.91 -313.18,-4.82 -388.54,-16.07 -61.67,166.87 -275.35,256.47 -434.07,123.23 -114.66,-96.26 4.36,-101.51 -182.64,-116.53l-289.45 46.66c178.37,700.66 1152.13,704.36 1294.7,-37.28z"/>
   <path class="fil6" d="M5749.81 4383.36c89.21,290.72 306.07,516.96 678.56,501.6 334.69,-13.81 548.06,-249.24 615.22,-560.98 -145.39,29.11 -269.74,-44.29 -384.71,17.22 -96.14,51.43 -91.55,165.88 -282.61,154.83 -219.61,-12.71 -94.77,-122.66 -291.95,-167.5l-334.51 54.84z"/>
   <path class="fil7" d="M6792.36 1008.57c73.22,-160.92 83.84,-247.04 141.32,-401.25 213.13,156.99 11.7,345.44 -141.32,401.25zm79.29 -465.21c14.78,387.92 -287.23,728.66 -654.77,739.9 -392.47,12 -693.8,-329.54 -653.94,-741.49l1308.71 1.59zm-960.31 744c-369.67,-13.68 -495.08,-49.05 -492.67,119.73 131.5,58.39 266.06,-6.75 392.45,29.32 153.18,43.71 -75.65,63.7 405.55,70.49 382.77,5.41 171.1,-65.57 372.9,-84.88 154.19,-14.75 321.83,50.72 416.24,-67.16 -31.03,-56.34 25.84,-76.36 -230.21,-71.34 -97.62,1.91 -195.55,2.16 -293,-2.12 369.72,-302.14 314.66,-193.68 470.77,-304.59 189.22,-134.43 146.15,-296.94 -8.39,-430.52l-48.04 -43.18c-43.98,-40.28 -1231.77,-13.62 -1388.65,-13.35 -2.57,195.34 3,334.5 93.33,494.86l290.59 287.84c4.86,3.61 12.84,9.83 19.12,14.92z"/>
   <path class="fil8" d="M859.98 1578.66c185.42,89.39 423.04,258.63 596.31,325.66 -37.96,88.6 -99.76,162.78 -181.13,214.96 -217.65,-56.84 -346.42,-165.82 -501.37,-261.11 -1.36,-104.65 41.02,-183.95 86.19,-279.51zm231.62 -649.86c156.48,32.55 549.25,330.06 809.78,417.71 -44.16,143.4 -296.35,351.54 -380.7,522.58 -151.71,-24.81 -474.25,-263.07 -638.43,-329.55 42.27,-194.24 198.23,-425.05 209.35,-610.74zm54.18 -78.69l30.11 -91.79c89,25.43 784.26,408.67 846.74,463.71l-83.33 102.94c-125.1,-41.61 -278.48,-151.01 -412.65,-222.92l-310.53 -168.1c-123.24,-79.22 -40.51,-47.36 -70.35,-83.84zm51.7 -241.87c169.98,46.49 693.05,405.98 935.18,499.17 -78,126.29 -128.82,54.48 -484.63,-154.05 -297.01,-174.07 -453.73,-182.68 -450.55,-345.12zm156.32 2.78c293.3,-154.31 709.2,-65.57 699.26,403.96 -68.63,-29.06 -642.9,-326.56 -699.26,-403.96zm-262.2 317.78c-65.74,52.8 -157.43,335.76 -199.34,442.56 -50.18,127.91 -164.59,371.38 -176.14,494.32 175.98,89.21 336.79,298.27 620.53,293.84l722.91 -896.86c52,-49.32 74.82,-66.77 117.95,-120.33 -17.72,-58.5 -9.4,-14.89 -31.34,-48.41 -3.72,-5.69 -18.56,-24.29 -22.34,-31.37l-17.42 -36.1c-15.7,-48.3 -86.35,-405.18 66.4,-453.73l320.25 -9.93c-79.95,-71.94 -254.94,-45.63 -370.48,-28.62l-98.93 163.64c-198.77,-226.38 -373.57,-242.54 -647.72,-144.78 -151.17,53.91 -120.83,-15.14 -205.81,31.42l-78.52 344.35z"/>
   <path class="fil8" d="M2296.32 8454.44c70.45,-53.76 202.22,-126.55 291.87,-179.27 81.16,-47.73 217.76,-134.83 306.27,-169.38l77.08 262.44c-101.23,115.95 -318.33,245.65 -500.92,300.13l-174.3 -213.92zm-431.96 -554.64c259.78,-127.32 490.29,-307.29 777.99,-452.38l222.77 623.4c-208.47,99.01 -405.95,254.85 -607.57,343.68 -125.67,-169 -269.62,-334.15 -393.2,-514.71zm-114.17 -107.63c45.39,-91.77 695.39,-460.67 819,-527.19l47.53 134.92c-120.71,80.94 -268.43,163.55 -394.02,240.93 -100.65,62.02 -295.86,186.06 -391.49,224.3l-81.02 -72.95zm346.97 -407.93c127.73,-75.58 317.08,-199.69 448.06,-255.51 25.55,116.07 26.73,80.75 -62.67,134.89l-731.46 440.4c-83.51,37.8 -57.28,28.24 -114.64,-26.51l460.71 -293.28zm-390.33 174.79c-14.46,-404.66 442.31,-676.84 693.72,-403.44l-693.72 403.44zm855.55 -480.3c-162.93,27.98 -25.49,77.51 -214.45,-21.1 -89.99,-46.96 -156.7,-24.01 -218.01,-101.97 -125.17,-159.15 37.55,-269.03 99.28,-426.43 -67.27,24.59 -45.25,1.49 -99.79,91.02 -131.09,215.2 -90,232.99 -24.48,366.56l-217.1 107.66c-47.84,37 -106.29,91.28 -142.27,150.51l-162.18 472.45c194.89,120.16 277.46,262.67 448.34,477.36 64.02,80.44 129.01,174.12 197.42,255.86l199.93 250.58c142.25,66.48 511.88,-251.13 593.54,-333.02 -16.63,-129.38 -275,-766.9 -352.24,-969.67 -39.6,-103.94 -64.13,-241.46 -107.99,-319.83z"/>
   <path class="fil9" d="M3296.7 4190.26c66.26,-73.75 127.6,-159.86 277.45,-113.59 98.42,30.38 165.57,141.25 129.59,264.41 -59.36,203.17 -453.77,236.74 -407.04,-150.82zm-241.81 329.37l701.95 175.87 258.48 -610 -884.59 -216.94 -75.84 651.07z"/>
   <path class="fil10" d="M6411.12 6721.15c-55.33,-301.41 354.57,-348.4 413.51,-100.42 70.09,294.92 -368.9,343.46 -413.51,100.42zm-251.9 107.94c112.05,12.61 447.9,233.71 561.94,295.16 91.14,-45.85 392.02,-423.48 435.32,-517.9 -117.39,-42.4 -279.45,-135.05 -386.89,-198.41 -111.05,-65.48 -283,-177.14 -393.78,-215.51 -35.27,43.78 -236.13,501.79 -226.42,597.99 0.52,5.14 3.6,15.32 4.25,19.48 0.66,4.16 3.43,12.88 5.58,19.19z"/>
   <path class="fil10" d="M1567.54 1317.31c56.24,429.12 -350.92,348.46 -403.31,167.91 -39.85,-137.34 45.84,-255.91 150.47,-276.28 131.5,-25.6 191.11,50.04 252.84,108.36zm-475.94 -388.51c-11.11,185.69 -167.08,416.5 -209.35,610.74 164.18,66.48 486.72,304.74 638.43,329.55 84.35,-171.04 336.54,-379.17 380.7,-522.58 -260.53,-87.65 -653.31,-385.15 -809.78,-417.71z"/>
   <path class="fil10" d="M2208.76 8030.86c-60.98,-403.82 352.48,-357.23 404.71,-149.44 32.82,130.56 -45.8,226.12 -137.38,254.76 -143.34,44.83 -202.49,-37.7 -267.33,-105.32zm-344.4 -131.06c123.58,180.56 267.53,345.71 393.2,514.71 201.62,-88.83 399.09,-244.67 607.57,-343.68l-222.77 -623.4c-287.69,145.09 -518.21,325.06 -777.99,452.38z"/>
   <path class="fil8" d="M3029.46 4834.98l18.25 -273.79 670.68 170.57c-54.72,176.15 -56.8,277.6 -267.11,243.24 -125.59,-20.52 -328.61,-80.99 -421.82,-140.01zm101.26 -966.42l884.59 216.94 -258.48 610 -701.95 -175.87 75.84 -651.07zm514.6 82.95c-161.22,-40.77 -345.31,-94.66 -507.43,-125.52l8.25 -126.68c123.7,-11.86 861,169.7 940.84,232.43 -65.64,161.36 15.48,135.35 -441.66,19.77zm-511.73 -421.48l1025.31 268.88c-30.77,131.26 -240.88,27.04 -528.24,-43.86 -428.66,-105.76 -484.74,-64.27 -497.07,-225.03zm135.44 -48.5c0.33,-0.09 680.35,-411.22 787.09,231.88 -115.09,-12.44 -298.7,-66.52 -419.24,-98.97 -188.16,-50.66 -327.31,-50.76 -367.85,-132.91zm0 0c-258.13,62.02 -115.68,-129.98 -200.94,560.94 -33.02,267.64 -78.32,556.29 -91.32,823.86 206.84,80.59 400.7,169.86 665.69,155.25l570.55 -1222.67c-79.51,-139.29 -59.37,47.16 -127.22,-152.27 -55.93,-164.42 -82.53,-149.42 -88.95,-218.5 -21.39,-229.95 201.58,-200.24 356.11,-266.8 -8.92,-6.49 0.47,-29.74 -108.94,-11.94 -26.95,4.38 -120.41,30.54 -148.06,41.19 -133.04,51.25 -109.61,84.89 -134.9,216.31 -335.82,-181.64 -650.64,-65.04 -692,74.63z"/>
   <path class="fil8" d="M6159.22 6829.1c23.96,41.81 0.78,19.9 51.02,57.38 41.52,30.97 16.03,10.23 69.44,38.5 130.5,69.05 330.24,165.69 423.05,247.8l-167.52 201.61c-162.32,-28.17 -249.24,-127.51 -372.28,-147.82l-150.19 -134.53c38.07,-115.14 46.73,-224.63 146.49,-262.94zm0 0c-2.15,-6.3 -4.92,-15.02 -5.58,-19.19 -0.66,-4.16 -3.74,-14.35 -4.25,-19.48 -9.71,-96.21 191.15,-554.21 226.42,-597.99 110.78,38.38 282.73,150.03 393.78,215.51 107.44,63.35 269.5,156.01 386.89,198.41 -43.3,94.42 -344.18,472.05 -435.32,517.9 -114.03,-61.45 -449.89,-282.54 -561.94,-295.16zm277.02 -817.3c121.12,54.64 770.78,403.24 839.06,470.79l-70.49 104.9 -813.8 -452.68 45.23 -123.01zm745.16 250.07c157.68,85.44 150.52,48.38 205.38,146.51 -111.82,60.01 -290.86,-89.57 -512.51,-212.49 -291.97,-161.94 -427.92,-175.33 -426.95,-334.1 122.56,38.34 373.73,193.72 496.09,266.16 91.72,54.29 150.02,86.26 237.99,133.92zm-580.92 -390.82c139.42,-91.85 346.74,-92.53 488.99,-23.87 167.82,81 211.45,177.49 218.68,424.73 -83.78,-27.94 -655.89,-345.48 -707.68,-400.86zm-437.56 1355.52c10.69,22.58 -4.13,30.05 78.46,81.5 2.05,1.27 78.08,39.99 88.38,44.9 193.28,92.04 230.04,94.73 335.87,-50.67l536.63 -659.04c137.23,-164.16 184.16,-175.17 231.31,-238.49 -46.08,-151.88 -54.3,7.36 -85.19,-162.08 -47.55,-260.79 43.71,-204.2 -107.82,-334.56 -320.78,-275.95 -509.34,-117.17 -667.77,-80.43 -211.3,49.01 -102.38,-80.99 -193.95,206.55 -14.8,46.48 -44.03,103.62 -61.76,150.14 -39.14,102.66 -75.3,194.54 -119.42,306.76 -60.56,154.07 -217.98,492.98 -228.83,637.06 87.5,36.52 109.41,82.01 194.11,98.36z"/>
   <path class="fil1" d="M2302.74 2364.36c80.38,176.07 315.61,636.94 425.26,710.02 152.48,-41.11 119.56,-153.95 135.96,-317.97 107.36,-1073.63 -493.16,-502.44 -561.22,-392.05z"/>
   <path class="fil1" d="M5469 5260.03c45.29,-249.51 -139.46,-380.65 -315.23,-444.47 -81.74,53.96 -586.7,494.17 -569.79,600.52 28.25,177.76 783.97,-40.16 885.01,-156.05z"/>
   <path class="fil1" d="M5215.41 7472.97c-17.09,54.32 -26.87,88.63 -41.61,143.83 -132.38,495.63 -227.13,723.55 219.87,379.39 732.57,-564.02 165.11,-713.69 -111.06,-676.29l-67.19 153.06z"/>
   <path class="fil0" d="M5749.81 4383.36l334.51 -54.84c197.18,44.84 72.34,154.79 291.95,167.5 191.06,11.05 186.47,-103.39 282.61,-154.83 114.97,-61.51 239.32,11.89 384.71,-17.22 -67.16,311.74 -280.53,547.17 -615.22,560.98 -372.49,15.36 -589.34,-210.88 -678.56,-501.6zm421.41 -132.83c-13.5,-317.05 444.57,-340.51 445.89,-26.23 1.3,310.07 -435.37,273.33 -445.89,26.23zm-61.07 21.96c-114.64,12.53 -83.99,-18.52 -174.73,-1.58 -0.38,0.08 -324.68,177.98 -162.89,-279.55 78.98,-223.35 320.88,-414.57 604.4,-421.1 365.71,-8.42 738.72,337.7 662.61,700.37l-344.94 5.75c-85.86,-143.51 -50.18,-314.46 -292.43,-322.01 -232.13,-7.24 -234.86,135.12 -292.02,318.12zm99.15 -727.29c-906.64,251.96 -538.2,1586.78 351.07,1372.53 329.85,-79.47 629.81,-430.86 515.29,-864.6 -91.36,-346.09 -449.16,-623.86 -866.37,-507.92z"/>
   <path class="fil0" d="M546.58 9590.26l289.45 -46.66c187,15.02 67.98,20.27 182.64,116.53 158.72,133.24 372.4,43.64 434.07,-123.23 75.36,11.25 314.62,23.98 388.54,16.07 -142.57,741.65 -1116.33,737.94 -1294.7,37.28zm591.6 -358.3c278.1,-84.36 392.95,336.69 148.85,422.93 -320.78,113.32 -422.07,-340.05 -148.85,-422.93zm-580.3 283.33c-121.41,-260.16 247.81,-866.97 829.77,-697.25 413.18,120.51 546.98,638.2 411.22,689.44 -68.44,25.83 -105.67,-7.39 -175.58,-10.91 -323.43,-16.27 -34.02,-8.45 -216.1,-222.1 -50.06,-58.73 -113.22,-98.72 -210.93,-97.21 -234.51,3.6 -238.72,161.54 -283.5,320.38 -120.94,23.08 -69.85,-21.71 -186.42,-0.55 -100.55,18.26 -41.64,53.52 -168.46,18.19zm-61.08 48.4c59.54,346.44 370.59,652.15 804.34,589.82 353.65,-50.83 673.89,-412.43 590.89,-828.91 -185.35,-930.16 -1550.17,-662.37 -1395.24,239.08z"/>
   <path class="fil11" d="M2022.04 3290.51c-90.42,-148.7 -108.88,-319.07 -3.03,-472.76l392.65 291.88c-107.26,123.2 -210.54,195.91 -389.62,180.87zm1099.03 -378.93c-1.08,-6.9 -5.57,-22.58 4.36,-55.45l95.8 -167.3c38.31,-73.57 62.25,-180.13 99.5,-235.25 320.07,76.98 513.63,601.33 -199.66,458zm-516.85 147.51c-140.38,71.81 -392.02,-136.23 -493.93,-228.03 -211.86,-190.87 37.72,-416.88 147.81,-437.17l346.12 665.2zm-301.47 -694.73c68.06,-110.39 668.59,-681.58 561.22,392.05 -16.4,164.01 16.51,276.86 -135.96,317.97 -109.65,-73.08 -344.88,-533.95 -425.26,-710.02zm927.84 200.39c-54.91,146.38 -187.18,413.36 -347.03,436.9 26.36,-319.68 51.73,-462.73 9.93,-787.89 303.63,-27.34 393.61,200.35 337.1,351zm-1253.71 766.17c417.75,36.46 346.51,-180.45 511.06,-205.41 237.29,-36 183.56,21.77 369.4,-58.01l192.74 -95.46c96.21,-42.16 487.2,91.96 593.83,-126.74 45.49,-93.29 -31.85,-216.3 -72.22,-279.95 -74.24,-117.06 -99.17,-95.61 -240.12,-159.18 -114.31,-51.55 -83.32,-106.02 -186.62,-185.84 -110.63,-85.49 -161.3,-33.69 -303.61,-91.16 -312.89,-126.38 -412.53,56.45 -556.63,182.91 -91.66,80.45 -127.02,44.22 -215.66,155.71 -98.36,123.73 -73.52,125.87 -90.96,274.55 -29.96,255.36 -176.79,66.81 -1.23,588.59z"/>
   <path class="fil0" d="M3078.71 6841.53c158.27,9.54 137.21,-33.15 257.37,-27.4 238.66,11.42 86.13,12.9 221.58,122 106.23,85.56 314.44,104.78 431.32,-124.17l376.87 5.44c12.55,422.35 -660.88,800.54 -1099.03,381.79l-27.12 -25.82c-91.68,-92.06 -131.12,-185.05 -161,-331.84zm539.63 -304.16c276.87,-165.68 455.13,225.49 234.86,371.26 -239.45,158.46 -512.45,-205.15 -234.86,-371.26zm-191.35 242.23c-120.78,-8.98 -67.89,-34.08 -168.3,-11.09 -52.82,12.09 -83.57,63.73 -158.06,15 -71.4,-46.71 -21.36,-219.99 11.64,-299.35 318.16,-765.16 1369.07,-364.69 1259.28,275.38 -108.15,50.97 -78.09,20.28 -160.36,7.81 -90.11,-13.65 -90.52,11.71 -203.95,2.36 -23.74,-191.27 -70.18,-329.33 -287.61,-318.89 -254.89,12.25 -195.32,180.16 -292.65,328.78zm979.51 127.51c182.68,-711.71 -619.99,-1112.58 -1084.1,-770.1 -109.04,80.46 -246.66,239.54 -287.02,407.98 -221.5,924.4 1143.5,1248.91 1371.13,362.12z"/>
   <path class="fil11" d="M5047.51 6195.44c-177.95,-108.79 -200.96,-228.58 -220.42,-472.21l505.05 93.4c-15.69,215.24 -115.19,338.21 -284.64,378.81zm-358.04 -643.18c90.58,-54.96 293.74,-56.73 407.74,-83.72 112.55,-26.66 281.41,-126.81 355.87,-102.24 85.35,186.3 -15.2,287.72 -139.92,395.38 -24.64,9.77 -553.19,-23.76 -623.7,-209.41zm779.53 -292.23c-101.04,115.89 -856.76,333.81 -885.01,156.05 -16.91,-106.35 488.05,-546.57 569.79,-600.52 175.77,63.82 360.51,194.96 315.23,444.47zm-921.04 26.57c-104.15,-156.49 122,-1011.4 557.02,-531.32 -17.73,53.7 -486.45,551.9 -557.02,531.32zm-351.97 -536.8c120.74,-82.59 234.91,-167.71 444.83,-92.52l-177.75 448.33c-157.45,-57.47 -287.45,-148.85 -267.08,-355.81zm-50.76 -2.32c-10.29,349.19 230.59,277.89 321.22,456.92 128.39,253.6 -1.78,163.56 133.99,315.69l147.07 173.48c64.23,76.1 102.05,832.48 497.79,428.46 85.24,-87.02 108.48,-139.43 126.37,-277.37 27.43,-211.61 63.7,-86.39 131.2,-236.35 58.84,-130.71 -7.83,-195.96 8.27,-335.58 30.88,-267.72 -90.98,-369.1 -274.17,-468.21 -158.55,-85.79 -137.9,-262.21 -516.09,-211.77 -330.98,44.14 -260.75,-109.84 -575.66,154.74z"/>
   <path class="fil11" d="M5444.6 8258.48c138.22,-30.14 430.1,-146.15 490.21,-139.99 65.97,138.8 62.93,455.76 -112.77,454.82 -182.21,-0.97 -324.8,-194.26 -377.44,-314.83zm-209.75 -54.6c28.01,-67.85 245.98,-207.87 419.74,-397.37l136.76 -162.97c178.27,103.82 183.07,382.82 14.71,471.96 -145.78,77.19 -428.85,148.08 -571.22,88.38zm-477.74 -765.19l68.87 484.08c-557.81,62.24 -486.58,-378.86 -68.87,-484.08zm525.5 -118.78c276.17,-37.4 843.63,112.26 111.06,676.29 -447,344.16 -352.25,116.24 -219.87,-379.39 14.74,-55.21 24.52,-89.51 41.61,-143.83l67.19 -153.06zm-266.43 719.21c-143.84,-43.55 -114.88,-65.58 -166.72,-242.24 -80.82,-275.43 -113.69,-497.98 200.42,-522.25 244.7,-18.9 179.22,10.8 -33.69,764.49zm-642.6 -255.34c114.64,156.96 172.74,215.6 461.4,182.12 314.94,271.96 177.09,201.46 528.8,321.83 179.95,61.58 185.66,378.66 533.83,319.94 88.63,-90 134.1,-174.56 125.19,-340.02 -5.71,-105.97 -32.37,-110.76 -56.72,-183.23 -40.33,-120.03 -8.78,-84.2 0.61,-197.91 17.54,-212.35 -86.64,-181.66 -147.95,-318.55 -178.52,-398.56 -293.55,-239.52 -612.32,-316.49 -129.32,-31.22 -257.73,-37.49 -371.99,52.96 -90.89,71.95 -9.72,50.57 -135.81,101.81 -65.2,26.5 -126.19,38.72 -169.29,71.64 -55.89,42.69 -135.96,186.8 -155.75,305.9z"/>
   <path class="fil1" d="M5016.18 8039.12c212.91,-753.69 278.39,-783.39 33.69,-764.49 -314.1,24.27 -281.24,246.82 -200.42,522.25 51.84,176.66 22.89,198.69 166.72,242.24z"/>
   <path class="fil1" d="M4547.95 5286.6c70.58,20.58 539.29,-477.62 557.02,-531.32 -435.02,-480.08 -661.18,374.83 -557.02,531.32z"/>
   <path class="fil10" d="M4689.46 5552.26c70.52,185.66 599.06,219.18 623.7,209.41 124.71,-107.66 225.27,-209.08 139.92,-395.38 -74.46,-24.57 -243.32,75.58 -355.87,102.24 -114,27 -317.16,28.76 -407.74,83.72z"/>
   <path class="fil1" d="M2604.22 3059.09l-346.12 -665.2c-110.09,20.29 -359.67,246.3 -147.81,437.17 101.91,91.8 353.56,299.84 493.93,228.03z"/>
   <path class="fil10" d="M2883.55 3001.64c159.84,-23.53 292.11,-290.52 347.03,-436.9 56.51,-150.65 -33.47,-378.34 -337.1,-351 41.81,325.16 16.43,468.21 -9.93,787.89z"/>
   <path class="fil1" d="M5234.85 8203.87c142.36,59.7 425.43,-11.18 571.22,-88.38 168.35,-89.14 163.55,-368.13 -14.71,-471.96l-136.76 162.97c-173.77,189.5 -391.73,329.52 -419.74,397.37z"/>
   <path class="fil12" d="M6162.91 7226.57c123.05,20.31 209.96,119.64 372.28,147.82l167.52 -201.61c-92.81,-82.1 -292.55,-178.74 -423.05,-247.8 -53.41,-28.26 -27.92,-7.52 -69.44,-38.5 -50.24,-37.48 -27.06,-15.57 -51.02,-57.38 -99.76,38.31 -108.42,147.8 -146.49,262.94l150.19 134.53z"/>
   <path class="fil9" d="M3029.46 4834.98c93.2,59.02 296.23,119.49 421.82,140.01 210.3,34.36 212.39,-67.1 267.11,-243.24l-670.68 -170.57 -18.25 273.79z"/>
   <path class="fil6" d="M2296.32 8454.44l174.3 213.92c182.59,-54.48 399.69,-184.17 500.92,-300.13l-77.08 -262.44c-88.51,34.54 -225.12,121.65 -306.27,169.38 -89.65,52.72 -221.42,125.51 -291.87,179.27z"/>
   <path class="fil10" d="M859.98 1578.66c-45.18,95.56 -87.55,174.86 -86.19,279.51 154.95,95.29 283.72,204.27 501.37,261.11 81.37,-52.18 143.17,-126.36 181.13,-214.96 -173.27,-67.04 -410.88,-236.27 -596.31,-325.66z"/>
   <path class="fil10" d="M3269.03 3481.52c40.54,82.15 179.68,82.25 367.85,132.91 120.54,32.46 304.16,86.53 419.24,98.97 -106.74,-643.1 -786.76,-231.97 -787.09,-231.88z"/>
   <path class="fil1" d="M5444.6 8258.48c52.64,120.57 195.23,313.85 377.44,314.83 175.7,0.94 178.74,-316.02 112.77,-454.82 -60.12,-6.16 -351.99,109.85 -490.21,139.99z"/>
   <path class="fil6" d="M5047.51 6195.44c169.45,-40.6 268.94,-163.57 284.64,-378.81l-505.05 -93.4c19.46,243.63 42.46,363.41 220.42,472.21z"/>
   <path class="fil6" d="M6600.47 5871.05c51.79,55.38 623.89,372.92 707.68,400.86 -7.24,-247.24 -50.87,-343.74 -218.68,-424.73 -142.25,-68.66 -349.57,-67.98 -488.99,23.87z"/>
   <path class="fil12" d="M1889.67 4087.27c-304.86,158.69 -70.6,519.34 184.14,406.37 240.3,-106.55 89.2,-548.65 -184.14,-406.37z"/>
   <path class="fil13" d="M6171.21 4250.53c10.52,247.1 447.2,283.85 445.89,-26.23 -1.33,-314.28 -459.4,-290.82 -445.89,26.23z"/>
   <path class="fil12" d="M4071.21 1247.49c-288.18,117.99 -102.05,526.59 181.27,401.25 244.92,-108.35 109.39,-520.26 -181.27,-401.25z"/>
   <path class="fil14" d="M1706.83 7559.03l693.72 -403.44c-251.41,-273.39 -708.18,-1.22 -693.72,403.44z"/>
   <path class="fil10" d="M1353.8 611.01c56.36,77.4 630.63,374.9 699.26,403.96 9.95,-469.52 -405.95,-558.27 -699.26,-403.96z"/>
   <path class="fil12" d="M1138.18 9231.96c-273.21,82.88 -171.92,536.24 148.85,422.93 244.1,-86.23 129.25,-507.28 -148.85,-422.93z"/>
   <path class="fil12" d="M3618.34 6537.37c-277.59,166.11 -4.59,529.72 234.86,371.26 220.27,-145.77 42,-536.94 -234.86,-371.26z"/>
   <path class="fil1" d="M3121.06 2911.58c713.29,143.33 519.73,-381.01 199.66,-458 -37.25,55.12 -61.19,161.68 -99.5,235.25l-95.8 167.3c-9.93,32.86 -5.44,48.55 -4.36,55.45z"/>
   <path class="fil15" d="M3933.88 2895.68c67.59,-51.29 92.76,-36.01 165.89,-96.47 165.39,-136.74 121.44,-421.52 413.96,-457.05 70.88,254.15 -143.4,466.06 -323.74,545.94 -92.03,40.75 -175.32,55.25 -256.11,7.59zm-69.52 -62.31c-47.89,-300.19 285.25,-610.31 586.01,-538 -164.62,136.93 -165.23,38.19 -269.94,291.65 -53.29,128.97 -158.8,265.71 -316.06,246.35zm398.26 -580.19c-525.07,139.65 -619.28,825.96 -137.06,702.64 507.24,-129.73 637.56,-835.75 137.06,-702.64z"/>
   <path class="fil16" d="M3137.9 3825.99c162.12,30.86 346.21,84.75 507.43,125.52 457.14,115.59 376.03,141.6 441.66,-19.77 -79.84,-62.73 -817.14,-244.29 -940.84,-232.43l-8.25 126.68z"/>
   <path class="fil10" d="M4757.11 7438.69c-417.71,105.22 -488.94,546.32 68.87,484.08l-68.87 -484.08z"/>
   <path class="fil17" d="M6306.32 8174.57c79.79,-47.07 114.06,-38.1 178.1,-95.88 176.48,-159.23 117.53,-424.81 418.87,-452.33 74.36,327.58 -348.57,680.23 -596.97,548.2zm-52.56 -53.3c-61.23,-300.49 265.76,-589.64 584.65,-552.41 -23.46,25.11 -12.11,18.84 -47.22,44.25 -18.68,13.52 -29.61,14.85 -52.43,29.4 -226.13,144.22 -150.42,486.32 -485,478.76zm692.49 -284.36c163.89,-479.85 -567.74,-385.24 -727.19,83.19 -166.88,490.25 561.49,401.98 727.19,-83.19z"/>
   <path class="fil15" d="M2166.49 9022.44l31.4 38.76c80.42,151.6 7.52,161.18 192.55,291.88 138.44,97.79 174.06,164.8 186.03,371.4 -344.99,3.28 -489.07,-387.58 -409.97,-702.04zm71.38 -38.33c334.54,-41.01 581.56,493.76 392.15,697.74 -92.98,-169.64 22.79,-192.59 -194.11,-350.22 -131.7,-95.71 -176.39,-148.04 -198.04,-347.52zm-133.87 340.5c117.93,542.64 731.57,612.53 623.12,63.29 -106.97,-541.73 -747.41,-635.15 -623.12,-63.29z"/>
   <path class="fil9" d="M1750.19 7792.17l81.02 72.95c95.63,-38.24 290.83,-162.27 391.49,-224.3 125.59,-77.38 273.32,-159.99 394.02,-240.93l-47.53 -134.92c-123.61,66.52 -773.61,435.43 -819,527.19z"/>
   <path class="fil16" d="M2022.64 1222.03c-62.48,-55.04 -757.74,-438.28 -846.74,-463.71l-30.11 91.79c29.84,36.48 -52.89,4.62 70.35,83.84l310.53 168.1c134.17,71.92 287.55,181.31 412.65,222.92l83.33 -102.94z"/>
   <path class="fil10" d="M4195.98 4749.8c-20.37,206.96 109.63,298.34 267.08,355.81l177.75 -448.33c-209.92,-75.19 -324.1,9.93 -444.83,92.52z"/>
   <path class="fil15" d="M1066.92 2922.24c150.17,-126.83 202.92,-60.56 289.16,-291.69 37.28,-99.89 38.21,-116.99 113.51,-178.56 176.88,-144.6 178.12,-64.36 185.05,-61.07 88.03,278.01 -348.9,664.8 -587.72,531.32zm-68.42 -76.19c-54.11,-272.08 274.2,-596.16 588.26,-526.11 -167.15,138.56 -168.91,42 -271.93,296.58 -43.56,107.63 -117.11,203.18 -218.81,235.75 -142.69,45.7 -74.45,3.76 -97.52,-6.22zm404.77 -575.96c-108.48,26.25 -183.89,68.44 -247,135.07 -55.45,58.53 -122.51,105.46 -168.82,202.49 -114.74,240.4 3.03,441.91 267.29,375.75 499,-124.92 646.08,-833.73 148.53,-713.3z"/>
   <path class="fil18" d="M2497.19 6145.47c50.91,-27.62 76.22,-38.39 122.46,-153.79 95.58,-238.54 -109.52,-143.94 105.71,-604.77 -249.71,47.05 -349.54,358.06 -331.06,561.73 10.63,117.21 41.03,153.07 102.89,196.84z"/>
   <path class="fil19" d="M3074.16 7487.29c99.54,391.61 329.57,185.87 502.44,491.4 14.5,25.63 12.98,30.74 28.49,54.37 26,39.63 16.82,26.1 43.32,52.89 31.69,-204.45 -29.87,-318.71 -138.82,-437.14 -60.93,-66.24 -278.67,-267.32 -435.42,-161.52z"/>
   <path class="fil16" d="M4675.59 3737.9c-124.17,262.93 321.61,681.5 519.32,579.15 53.2,-27.54 4.21,-216.84 -201.71,-304.83 -273.48,-116.85 -194.48,-140.53 -317.61,-274.32z"/>
   <path class="fil18" d="M5832.11 5961.74c99.88,-28.04 83.86,-22.03 139.61,-122.29 134.02,-240.97 -95.06,-143.78 120.07,-641.6 -163.07,46.09 -220.82,118.56 -287.48,287.4 -66.36,168.09 -30.44,350.03 27.79,476.5z"/>
   <path class="fil16" d="M6101.74 9942.82c86.07,-35.11 27.78,24.2 85.37,-64.46 132.6,-204.14 9.18,-756.09 -279.82,-702.94 -15.63,474.26 262.8,307.05 194.45,767.4z"/>
   <path class="fil16" d="M2789.41 5400.2c-253.23,204.51 40.85,350.37 -225.42,770.98 171.79,-34.14 269.75,-162.15 322.13,-336.72 54.96,-183.16 35.13,-362.96 -96.71,-434.26z"/>
   <path class="fil16" d="M1066.92 2922.24c238.82,133.49 675.75,-253.31 587.72,-531.32 -6.93,-3.29 -8.17,-83.53 -185.05,61.07 -75.3,61.57 -76.24,78.67 -113.51,178.56 -86.25,231.13 -139,164.86 -289.16,291.69z"/>
   <path class="fil16" d="M667.36 3913.72c-44.46,461.57 236.16,281.41 191.63,778.7 234.6,-97.96 160.68,-771.5 -191.63,-778.7z"/>
   <path class="fil15" d="M5932.88 5977.01c263.81,-331.26 -37.51,-540.51 230.39,-762.97 251.12,181.81 69.51,747.98 -230.39,762.97zm-100.77 -15.27c-58.23,-126.47 -94.15,-308.41 -27.79,-476.5 66.67,-168.84 124.41,-241.31 287.48,-287.4 -215.13,497.82 13.95,400.64 -120.07,641.6 -55.76,100.26 -39.74,94.25 -139.61,122.29zm196.34 -792.19c-391.01,137.36 -424.26,968.89 -13.45,846.41 357.68,-106.65 448,-999.06 13.45,-846.41z"/>
   <path class="fil16" d="M6057.34 9961.73c59.75,-508.1 -223.1,-302.81 -185.26,-778.88 -138.36,85.85 -151.84,289.34 -106.88,459.05 45,169.89 120.83,295.09 292.14,319.83z"/>
   <path class="fil17" d="M6057.34 9961.73c-171.3,-24.75 -247.13,-149.95 -292.14,-319.83 -44.96,-169.71 -31.48,-373.19 106.88,-459.05 -37.84,476.08 245.01,270.79 185.26,778.88zm-150.04 -786.31c289,-53.15 412.42,498.8 279.82,702.94 -57.59,88.66 0.69,29.35 -85.37,64.46 68.35,-460.35 -210.08,-293.14 -194.45,-767.4zm-185.65 467.97c137.18,574.27 690.13,416.18 539.49,-177.53 -142.19,-560.39 -677.15,-398.75 -539.49,177.53z"/>
   <path class="fil17" d="M4993.19 4012.22c205.92,87.99 254.91,277.29 201.71,304.83 -197.7,102.35 -643.49,-316.22 -519.32,-579.15 123.12,133.79 44.13,157.47 317.61,274.32zm-5.2 -48.62c-146.22,-57.67 -244.03,-138.42 -274.8,-286.81 180.54,-112.08 629.88,130.25 574.56,581.56l-69.99 -98.99c-14.71,-31.32 -31.39,-68.52 -45.58,-86.88 -39.53,-51.16 -96.11,-74.14 -184.19,-108.88zm-273.97 -321.94c-43.33,27.35 -48.84,-15.67 -88.32,84.31 -119.31,302.11 367.54,801.13 633.79,603.32 289.22,-214.86 -233.68,-884.42 -545.46,-687.63z"/>
   <path class="fil15" d="M620.58 3940.35c-17.92,472.5 254.14,288.47 192.3,756.04 -274.52,24.01 -445.04,-566.07 -192.3,-756.04zm46.78 -26.63c352.31,7.2 426.22,680.75 191.63,778.7 44.53,-497.3 -236.09,-317.14 -191.63,-778.7zm-71 -3.65c-39.05,29.48 -45.7,11.4 -89.35,78.86 -99.55,153.86 -67.38,514.53 129.88,688.08 278.13,244.7 486.6,-133.73 368.53,-500.41 -48.35,-150.13 -219.11,-409.97 -409.06,-266.53z"/>
   <path class="fil16" d="M3561.63 8138.61c6.91,-16.97 14.53,-10.62 11.81,-53.85 -7.88,-125.02 -135.63,-217.05 -242.39,-258.02 -213.1,-81.79 -179.28,-131.03 -297.14,-277.09 -55.33,200.94 37.11,326.51 144.13,430.28 89.7,86.98 202.55,206.33 383.59,158.69z"/>
   <path class="fil16" d="M6253.76 8121.27c334.58,7.56 258.87,-334.53 485,-478.76 22.82,-14.55 33.75,-15.88 52.43,-29.4 35.11,-25.41 23.76,-19.14 47.22,-44.25 -318.89,-37.23 -645.88,251.92 -584.65,552.41z"/>
   <path class="fil19" d="M5932.88 5977.01c299.9,-14.99 481.51,-581.16 230.39,-762.97 -267.9,222.47 33.42,431.71 -230.39,762.97z"/>
   <path class="fil16" d="M998.5 2846.05c23.07,9.98 -45.17,51.92 97.52,6.22 101.7,-32.57 175.25,-128.12 218.81,-235.75 103.02,-254.58 104.78,-158.02 271.93,-296.58 -314.06,-70.05 -642.37,254.03 -588.26,526.11z"/>
   <path class="fil13" d="M2022.04 3290.51c179.07,15.03 282.35,-57.68 389.62,-180.87l-392.65 -291.88c-105.84,153.69 -87.38,324.05 3.03,472.76z"/>
   <path class="fil18" d="M2166.49 9022.44c-79.1,314.46 64.98,705.31 409.97,702.04 -11.97,-206.6 -47.59,-273.6 -186.03,-371.4 -185.03,-130.7 -112.13,-140.28 -192.55,-291.88l-31.4 -38.76z"/>
   <path class="fil19" d="M2237.87 8984.11c21.65,199.48 66.34,251.81 198.04,347.52 216.9,157.63 101.13,180.58 194.11,350.22 189.41,-203.99 -57.61,-738.75 -392.15,-697.74z"/>
   <path class="fil16" d="M4713.19 3676.8c30.77,148.39 128.58,229.14 274.8,286.81 88.08,34.75 144.66,57.72 184.19,108.88 14.19,18.36 30.87,55.56 45.58,86.88l69.99 98.99c55.32,-451.3 -394.02,-693.64 -574.56,-581.56z"/>
   <path class="fil18" d="M620.58 3940.35c-252.74,189.97 -82.23,780.06 192.3,756.04 61.84,-467.57 -210.22,-283.54 -192.3,-756.04z"/>
   <path class="fil16" d="M3933.88 2895.68c80.79,47.66 164.08,33.16 256.11,-7.59 180.35,-79.88 394.63,-291.79 323.74,-545.94 -292.52,35.54 -248.57,320.32 -413.96,457.05 -73.13,60.46 -98.3,45.18 -165.89,96.47z"/>
   <path class="fil10" d="M6391 6134.81l813.8 452.68 70.49 -104.9c-68.28,-67.55 -717.94,-416.15 -839.06,-470.79l-45.23 123.01z"/>
   <path class="fil16" d="M6306.32 8174.57c248.4,132.02 671.33,-220.62 596.97,-548.2 -301.34,27.52 -242.38,293.09 -418.87,452.33 -64.04,57.77 -98.31,48.81 -178.1,95.88z"/>
   <path class="fil16" d="M3864.36 2833.36c157.27,19.35 262.78,-117.38 316.06,-246.35 104.72,-253.45 105.33,-154.72 269.94,-291.65 -300.76,-72.31 -633.9,237.81 -586.01,538z"/>
   <path class="fil17" d="M3033.91 7549.64c117.87,146.06 84.04,195.3 297.14,277.09 106.76,40.97 234.51,133 242.39,258.02 2.73,43.23 -4.9,36.88 -11.81,53.85 -181.05,47.65 -293.89,-71.71 -383.59,-158.69 -107.02,-103.76 -199.46,-229.34 -144.13,-430.28zm542.69 429.05c-172.87,-305.53 -402.9,-99.79 -502.44,-491.4 156.75,-105.8 374.49,95.28 435.42,161.52 108.95,118.43 170.51,232.69 138.82,437.14 -26.5,-26.79 -17.31,-13.26 -43.32,-52.89 -15.51,-23.63 -13.99,-28.74 -28.49,-54.37zm-505.17 -539.89c-64.32,86.88 -115.82,116.31 -96.53,262.87 29.43,223.64 340.15,574.44 605.08,477.5 300.09,-109.8 24.43,-809.48 -508.55,-740.37z"/>
   <path class="fil17" d="M2789.41 5400.2c131.84,71.3 151.67,251.1 96.71,434.26 -52.38,174.56 -150.34,302.57 -322.13,336.72 266.26,-420.61 -27.81,-566.46 225.42,-770.98zm-292.23 745.27c-61.86,-43.77 -92.26,-79.63 -102.89,-196.84 -18.48,-203.67 81.35,-514.68 331.06,-561.73 -215.24,460.83 -10.14,366.24 -105.71,604.77 -46.24,115.4 -71.55,126.17 -122.46,153.79zm163.83 -785.13c-414.55,155.37 -411.01,990.31 1.01,836.51 335.54,-125.25 428.91,-997.64 -1.01,-836.51z"/>
   <path class="fil20" d="M7386.77 6408.38c-54.86,-98.13 -47.7,-61.07 -205.38,-146.51 -87.96,-47.66 -146.26,-79.63 -237.99,-133.92 -122.36,-72.44 -373.53,-227.83 -496.09,-266.16 -0.97,158.77 134.98,172.17 426.95,334.1 221.64,122.93 400.69,272.51 512.51,212.49z"/>
   <path class="fil20" d="M2132.66 1107.41c-242.13,-93.2 -765.2,-452.69 -935.18,-499.17 -3.18,162.44 153.54,171.05 450.55,345.12 355.81,208.53 406.63,280.34 484.63,154.05z"/>
   <path class="fil20" d="M4158.91 3798.91l-1025.31 -268.88c12.33,160.75 68.41,119.27 497.07,225.03 287.36,70.9 497.47,175.11 528.24,43.86z"/>
   <path class="fil21" d="M1636.45 7677.52c57.37,54.75 31.13,64.3 114.64,26.51l731.46 -440.4c89.39,-54.14 88.22,-18.82 62.67,-134.89 -130.98,55.82 -320.33,179.93 -448.06,255.51l-460.71 293.28z"/>
   <path class="fil14" d="M2334.28 8094l144.68 8.29c44.51,-49.17 175.36,-181.18 44.75,-292.79 -40.36,-34.49 -123.51,-52.54 -184.82,-26.34 -93.22,39.83 -174.81,162.7 -4.61,310.84z"/>
   <path class="fil10" d="M6526.54 6824.84l181.52 8.95 60.06 -79.41c27.67,-160.23 -30.17,-304.77 -221.2,-235.9 -145.49,52.46 -102.04,190.66 -20.38,306.36z"/>
   <path class="fil13" d="M1298.04 1256.69c-187.75,182.76 -64.75,370.25 118.9,320.69 158.3,-42.71 197.3,-344.98 -118.9,-320.69z"/>
   <path class="fil14" d="M3417.36 4432.55c148.32,19.35 250.76,-1.75 248.61,-155.04 -2.04,-145.77 -100.8,-174.44 -246.94,-156.24 -105.71,140.12 -115,171.05 -1.67,311.28z"/>
   <path class="fil22" d="M1298.04 1256.69c316.2,-24.29 277.2,277.98 118.9,320.69 -183.65,49.56 -306.65,-137.94 -118.9,-320.69zm269.5 60.61c-61.73,-58.32 -121.35,-133.96 -252.84,-108.36 -104.63,20.37 -190.32,138.94 -150.47,276.28 52.39,180.54 459.55,261.21 403.31,-167.91z"/>
   <path class="fil23" d="M3417.36 4432.55c-113.33,-140.23 -104.03,-171.16 1.67,-311.28 146.14,-18.19 244.9,10.47 246.94,156.24 2.15,153.29 -100.29,174.39 -248.61,155.04zm-120.67 -242.29c-46.73,387.56 347.69,353.99 407.04,150.82 35.98,-123.16 -31.18,-234.03 -129.59,-264.41 -149.86,-46.27 -211.19,39.84 -277.45,113.59z"/>
   <path class="fil23" d="M6526.54 6824.84c-81.65,-115.71 -125.1,-253.9 20.38,-306.36 191.03,-68.87 248.87,75.67 221.2,235.9l-60.06 79.41 -181.52 -8.95zm-115.42 -103.69c44.61,243.05 483.59,194.5 413.51,-100.42 -58.93,-247.99 -468.83,-200.99 -413.51,100.42z"/>
   <path class="fil8" d="M2334.28 8094c-170.2,-148.15 -88.61,-271.01 4.61,-310.84 61.31,-26.2 144.46,-8.15 184.82,26.34 130.61,111.61 -0.25,243.62 -44.75,292.79l-144.68 -8.29zm-125.52 -63.14c64.84,67.62 123.99,150.15 267.33,105.32 91.58,-28.64 170.2,-124.2 137.38,-254.76 -52.23,-207.79 -465.69,-254.38 -404.71,149.44z"/>
   <path class="fil24" d="M6792.36 1008.57c153.03,-55.81 354.46,-244.26 141.32,-401.25 -57.49,154.21 -68.11,240.33 -141.32,401.25z"/>
   <path class="fil25" d="M4775.63 9264.7c143.85,-83.36 255,-306.85 20.02,-410.23 35.55,154.19 30.28,263.66 -20.02,410.23z"/>
   <path class="fil10" d="M1554.31 6253.86c152.24,-83.82 314.37,-239.43 141.03,-397.47 -45.46,86.35 -48.16,279.19 -141.03,397.47z"/>
   <path class="fil10" d="M6013.16 2878.68c187.37,-78.71 269.65,-240.48 145.56,-398.7 -57.73,105.87 -61.54,298.05 -145.56,398.7z"/>
  </g>
  <g id="_2298644019904">
   <path class="fil0" d="M8829.29 4436.51c6.11,-3.13 16.12,-12.74 19.39,-6.94 4.21,7.48 27.46,-9.8 40.14,-13.63 362.4,-109.7 354.73,31.04 413.45,82.56 145.87,128 357.4,52.34 433.28,-107.5l385.93 3.36c-63.37,310.71 -279.96,545.02 -624.46,558.8 -367.52,14.7 -583.99,-232.71 -667.73,-516.65zm564.41 -349.23c273.34,-142.28 424.44,299.83 184.14,406.37 -254.74,112.96 -489,-247.68 -184.14,-406.37zm-454.59 -229.2c116.8,-50.66 155.55,-143.85 336.67,-197.68 651.37,-193.56 952.77,544.08 831.7,674.98 -35.07,37.92 -326.37,1.99 -345.35,-1.94 -52.74,-161.26 -69.98,-320.56 -291.98,-315.93 -214,4.48 -230.8,148.86 -278.92,325.86 -95.37,6 -83.23,-18.77 -168.18,-8.95 -109.23,12.64 -36.43,47.17 -199.32,23.95 -60.64,-283.35 113.47,-348.07 115.38,-500.29zm0 0l-1435.08 -3858.06 1435.08 3858.06z"/>
   <path class="fil0" d="M11091.49 1569.87c267.75,-74.64 267.77,-24.74 391.91,83.72 158.28,138.29 358.46,50.72 425.76,-114.68 63.76,10.83 349.65,22.79 393.65,11.36 -98.94,699.53 -1145.02,760.22 -1290.83,43.7l79.51 -24.1zm483.75 -322.36c290.65,-119 426.19,292.91 181.27,401.25 -283.32,125.34 -469.44,-283.27 -181.27,-401.25zm-483.19 -183.34c6.29,-2.1 14.27,-6.75 17.8,-8.89 3.48,-2.11 13.08,-6.6 17.22,-9.34 115.97,-76.64 83.16,-141.63 290.44,-211.59 159.45,-53.82 328.37,-54.49 482.42,3.16 390.7,146.23 458.83,590.01 385.71,654.23 -34.01,29.87 -242.96,13.26 -338.16,9.82 -20.16,-59.44 -33.19,-330.67 -299.15,-321.49 -203.47,7.02 -233.26,150.92 -274.36,325.83 -101.82,-0.47 -101.02,-24.04 -191.18,-6.31 -102.18,20.11 -40.19,36.15 -179.03,22.18 -26.18,-211.85 74.75,-306.93 88.27,-457.61zm0 0l-3588.02 -1064.15 3588.02 1064.15z"/>
   <path class="fil1" d="M14375.67 543.38l-1308.71 -1.59c-39.87,411.95 261.47,753.48 653.94,741.49 367.54,-11.24 669.55,-351.97 654.77,-739.9z"/>
   <path class="fil1" d="M13591.94 2420.98l-1312.61 2.38c-11.61,292.02 126.99,543.62 369.3,665.55 87.35,43.96 166.45,64.54 274.82,63.38 395.67,-4.25 648.44,-329.15 668.49,-731.31z"/>
   <path class="fil1" d="M9130.52 5794.32l-1312.25 1.56c-9.65,226.19 79.39,410.84 188.03,530.35 3.51,3.86 8.91,9.57 12.5,13.31 109.96,114.74 273.97,185.35 441.6,184.01 390.94,-3.16 655.47,-320.84 670.12,-729.23z"/>
   <path class="fil1" d="M10975.83 9148.1c71.04,359.66 380.49,637.69 782.58,544.14 321.76,-74.86 605.91,-466.44 474.46,-872.5l-1257.05 328.36z"/>
   <path class="fil2" d="M8939.11 3858.08c-1.91,152.23 -176.02,216.95 -115.38,500.29 162.88,23.22 90.09,-11.32 199.32,-23.95 84.94,-9.82 72.81,14.96 168.18,8.95 48.12,-177 64.92,-321.38 278.92,-325.86 222,-4.64 239.24,154.67 291.98,315.93 18.98,3.92 310.29,39.86 345.35,1.94 121.07,-130.9 -180.32,-868.54 -831.7,-674.98 -181.12,53.83 -219.87,147.02 -336.67,197.68z"/>
   <path class="fil3" d="M11092.05 1064.16c-13.52,150.68 -114.46,245.76 -88.27,457.61 138.84,13.96 76.85,-2.08 179.03,-22.18 90.15,-17.73 89.36,5.84 191.18,6.31 41.09,-174.91 70.89,-318.81 274.36,-325.83 265.95,-9.18 278.99,262.05 299.15,321.49 95.19,3.44 304.15,20.05 338.16,-9.82 73.12,-64.22 4.99,-508 -385.71,-654.23 -154.05,-57.65 -322.97,-56.98 -482.42,-3.16 -207.28,69.96 -174.47,134.95 -290.44,211.59 -4.14,2.73 -13.74,7.23 -17.22,9.34 -3.53,2.14 -11.51,6.78 -17.8,8.89z"/>
   <path class="fil2" d="M8061.91 9515.31c126.83,35.33 67.91,0.08 168.46,-18.19 116.57,-21.16 65.48,23.63 186.42,0.55 44.78,-158.85 48.99,-316.78 283.5,-320.38 97.71,-1.51 160.87,38.48 210.93,97.21 182.09,213.65 -107.32,205.82 216.1,222.1 69.91,3.52 107.14,36.74 175.58,10.91 135.75,-51.24 1.96,-568.93 -411.22,-689.44 -581.95,-169.72 -951.17,437.09 -829.77,697.25z"/>
   <path class="fil2" d="M10931.02 6779.61c97.33,-148.62 37.76,-316.53 292.65,-328.78 217.43,-10.44 263.88,127.62 287.61,318.89 113.43,9.35 113.84,-16.01 203.95,-2.36 82.27,12.47 52.21,43.16 160.36,-7.81 109.79,-640.07 -941.12,-1040.54 -1259.28,-275.38 -33.01,79.36 -83.04,252.64 -11.64,299.35 74.48,48.73 105.24,-2.91 158.06,-15 100.4,-22.98 47.52,2.12 168.3,11.09z"/>
   <path class="fil2" d="M13614.17 4272.5c57.16,-183 59.89,-325.36 292.02,-318.12 242.25,7.55 206.57,178.5 292.43,322.01l344.94 -5.75c76.11,-362.67 -296.9,-708.79 -662.61,-700.37 -283.51,6.52 -525.42,197.75 -604.4,421.1 -161.79,457.53 162.52,279.63 162.89,279.55 90.73,-16.94 60.09,14.11 174.73,1.58z"/>
   <path class="fil4" d="M12232.88 8819.74c131.44,406.07 -152.7,797.64 -474.46,872.5 -402.09,93.54 -711.54,-184.48 -782.58,-544.14l1257.05 -328.36zm46.78 444.98c50.3,-146.57 55.57,-256.04 20.02,-410.23 234.97,103.38 123.83,326.87 -20.02,410.23zm-228.13 352.9c61.64,-54.65 47.12,-30.48 103.34,-107.09 270.37,-368.47 191.82,-112.17 295.98,-315.34 149.89,-292.38 -108.24,-446.73 -265.97,-431.16 -133.13,13.14 -1135.17,292.49 -1257.29,348.07 -34.52,274.65 262.92,604.95 581.5,647.79 -362,124.6 -451.35,50.76 -479.01,249.23 182.4,67.01 258.97,-73.34 426.41,-60.37 130.19,10.09 45.95,52.93 233.89,10.31 449.21,-101.88 358.14,-176.54 516.33,-231.01 61.45,-21.15 143.81,-39.62 208.53,-56.82 88.82,-23.6 129.56,-24.18 162.41,-67.28 -34.14,-179.6 -98.84,-99.06 -526.11,13.68z"/>
   <path class="fil5" d="M9058.34 6253.87c92.87,-118.28 95.57,-311.12 141.03,-397.47 173.34,158.04 11.21,313.65 -141.03,397.47zm72.18 -459.55c-14.65,408.38 -279.18,726.07 -670.12,729.23 -167.64,1.35 -331.64,-69.27 -441.6,-184.01 -3.59,-3.74 -8.99,-9.45 -12.5,-13.31 -108.63,-119.51 -197.68,-304.16 -188.03,-530.35l1312.25 -1.56zm9.81 -43.55c-43.59,-14.93 -17.51,-8.63 -67.47,-13.56 -45.02,-4.45 -137.42,0.73 -187.28,1.2 -270.34,2.57 -919.73,-17.01 -1105.28,9.87 -46.36,155.74 4.86,380.06 81.55,505.62 30.84,50.48 225.22,274.11 314.82,261.12 -128.97,27.84 -331.57,0.11 -409.11,13.49 -92.99,16.05 -77.1,42.33 -82.29,33.41 -3.14,-5.4 -11.65,7.73 -16.41,12.76 1.48,197.11 193.95,95.76 363.68,114.5 141.02,15.57 14.11,31.85 160.81,65.91 69.78,16.21 166.33,8.29 240.41,8.9 455.05,3.72 219.82,-47.73 401.45,-82.83 139.8,-27.02 289.7,20.98 421.54,-31.01 -7.55,-210.78 -108.3,-95.18 -524.4,-127.66 170.95,-53.12 182.82,-115.74 209.81,-141.76 112.64,-108.63 373.13,-76.7 388.87,-355.14 8.68,-153.39 -47.69,-189.76 -122.65,-237.01l-68.07 -37.83z"/>
   <path class="fil5" d="M13517.18 2878.7c84.02,-100.65 87.84,-292.83 145.56,-398.7 124.09,158.22 41.8,319.99 -145.56,398.7zm74.75 -457.72c-20.05,402.16 -272.81,727.06 -668.49,731.31 -108.37,1.17 -187.46,-19.42 -274.82,-63.38 -242.32,-121.93 -380.91,-373.53 -369.3,-665.55l1312.61 -2.38zm-950.83 721.27c-158.07,36.9 -418.03,-33.83 -517.22,56.37 38.8,236.42 154.48,76.03 391.48,121.5 134.2,25.75 -8.26,38.43 165.13,65.85l479.93 -8.71c133.79,-47.03 -7.29,-54.45 160.67,-73.02 284.31,-31.43 396.33,85.7 397.4,-124.03 -134.71,-57.4 -356.33,-18.3 -521.38,-30.4 150.99,-50.16 162.38,-96.38 194.84,-129.32 59.01,-59.87 580.51,-206.55 363.9,-531.56l-72.12 -61.93c-6.33,-4.37 -24.24,-16.7 -30.9,-20.74 -157.4,-95.34 -479,-40.64 -676.26,-40.54 -220.54,0.11 -526.55,-16.63 -736.71,8.1 -111.13,398.63 295.63,784.96 401.23,768.42z"/>
   <path class="fil6" d="M10582.74 6841.54c29.88,146.78 69.33,239.78 161,331.84l27.12 25.82c438.15,418.75 1111.57,40.57 1099.03,-381.79l-376.87 -5.44c-116.88,228.95 -325.09,209.73 -431.32,124.17 -135.46,-109.1 17.07,-110.58 -221.58,-122 -120.16,-5.75 -99.1,36.94 -257.37,27.4z"/>
   <path class="fil6" d="M9302.28 4498.5c-58.72,-51.52 -51.05,-192.27 -413.45,-82.56 -12.68,3.83 -35.93,21.11 -40.14,13.63 -3.27,-5.8 -13.28,3.81 -19.39,6.94 83.75,283.94 300.22,531.35 667.73,516.65 344.5,-13.78 561.09,-248.09 624.46,-558.8l-385.93 -3.36c-75.88,159.83 -287.41,235.49 -433.28,107.5z"/>
   <path class="fil6" d="M11011.98 1593.97c145.81,716.52 1191.89,655.83 1290.83,-43.7 -43.99,11.43 -329.89,-0.53 -393.65,-11.36 -67.3,165.4 -267.47,252.97 -425.76,114.68 -124.14,-108.45 -124.15,-158.36 -391.91,-83.72l-79.51 24.1z"/>
   <path class="fil6" d="M9345.3 9553c-73.93,7.91 -313.18,-4.82 -388.54,-16.07 -61.67,166.87 -275.35,256.47 -434.07,123.23 -114.66,-96.26 4.36,-101.51 -182.64,-116.53l-289.45 46.66c178.37,700.66 1152.13,704.36 1294.7,-37.28z"/>
   <path class="fil6" d="M13253.84 4383.37c89.21,290.72 306.07,516.96 678.56,501.6 334.69,-13.81 548.06,-249.24 615.22,-560.98 -145.39,29.11 -269.74,-44.29 -384.71,17.22 -96.14,51.43 -91.55,165.88 -282.61,154.83 -219.61,-12.71 -94.77,-122.66 -291.95,-167.5l-334.51 54.84z"/>
   <path class="fil7" d="M14296.39 1008.59c73.22,-160.92 83.84,-247.04 141.32,-401.25 213.13,156.99 11.7,345.44 -141.32,401.25zm79.29 -465.21c14.78,387.92 -287.23,728.66 -654.77,739.9 -392.47,12 -693.8,-329.54 -653.94,-741.49l1308.71 1.59zm-960.31 744c-369.67,-13.68 -495.08,-49.05 -492.67,119.73 131.5,58.39 266.06,-6.75 392.45,29.32 153.18,43.71 -75.65,63.7 405.55,70.49 382.77,5.41 171.1,-65.57 372.9,-84.88 154.19,-14.75 321.83,50.72 416.24,-67.16 -31.03,-56.34 25.84,-76.36 -230.21,-71.34 -97.62,1.91 -195.55,2.16 -293,-2.12 369.72,-302.14 314.66,-193.68 470.77,-304.59 189.22,-134.43 146.15,-296.94 -8.39,-430.52l-48.04 -43.18c-43.98,-40.28 -1231.77,-13.62 -1388.65,-13.35 -2.57,195.34 3,334.5 93.33,494.86l290.59 287.84c4.86,3.61 12.84,9.83 19.12,14.92z"/>
   <path class="fil8" d="M8364.01 1578.67c185.42,89.39 423.04,258.63 596.31,325.66 -37.96,88.6 -99.76,162.78 -181.13,214.96 -217.65,-56.84 -346.42,-165.82 -501.37,-261.11 -1.36,-104.65 41.02,-183.95 86.19,-279.51zm231.62 -649.86c156.48,32.55 549.25,330.06 809.78,417.71 -44.16,143.4 -296.35,351.54 -380.7,522.58 -151.71,-24.81 -474.25,-263.07 -638.43,-329.55 42.27,-194.24 198.23,-425.05 209.35,-610.74zm54.18 -78.69l30.11 -91.79c89,25.43 784.26,408.67 846.74,463.71l-83.33 102.94c-125.1,-41.61 -278.48,-151.01 -412.65,-222.92l-310.53 -168.1c-123.24,-79.22 -40.51,-47.36 -70.35,-83.84zm51.7 -241.87c169.98,46.49 693.05,405.98 935.18,499.17 -78,126.29 -128.82,54.48 -484.63,-154.05 -297.01,-174.07 -453.73,-182.68 -450.55,-345.12zm156.32 2.78c293.3,-154.31 709.2,-65.57 699.26,403.96 -68.63,-29.06 -642.9,-326.56 -699.26,-403.96zm-262.2 317.78c-65.74,52.8 -157.43,335.76 -199.34,442.56 -50.18,127.91 -164.59,371.38 -176.14,494.32 175.98,89.21 336.79,298.27 620.53,293.84l722.91 -896.86c52,-49.32 74.82,-66.77 117.95,-120.33 -17.72,-58.5 -9.4,-14.89 -31.34,-48.41 -3.72,-5.69 -18.56,-24.29 -22.34,-31.37l-17.42 -36.1c-15.7,-48.3 -86.35,-405.18 66.4,-453.73l320.25 -9.93c-79.95,-71.94 -254.94,-45.63 -370.48,-28.62l-98.93 163.64c-198.77,-226.38 -373.57,-242.54 -647.72,-144.78 -151.17,53.91 -120.83,-15.14 -205.81,31.42l-78.52 344.35z"/>
   <path class="fil8" d="M9800.35 8454.46c70.45,-53.76 202.22,-126.55 291.87,-179.27 81.16,-47.73 217.76,-134.83 306.27,-169.38l77.08 262.44c-101.23,115.95 -318.33,245.65 -500.92,300.13l-174.3 -213.92zm-431.96 -554.64c259.78,-127.32 490.29,-307.29 777.99,-452.38l222.77 623.4c-208.47,99.01 -405.95,254.85 -607.57,343.68 -125.67,-169 -269.62,-334.15 -393.2,-514.71zm-114.17 -107.63c45.39,-91.77 695.39,-460.67 819,-527.19l47.53 134.92c-120.71,80.94 -268.43,163.55 -394.02,240.93 -100.65,62.02 -295.86,186.06 -391.49,224.3l-81.02 -72.95zm346.97 -407.93c127.73,-75.58 317.08,-199.69 448.06,-255.51 25.55,116.07 26.73,80.75 -62.67,134.89l-731.46 440.4c-83.51,37.8 -57.28,28.24 -114.64,-26.51l460.71 -293.28zm-390.33 174.79c-14.46,-404.66 442.31,-676.84 693.72,-403.44l-693.72 403.44zm855.55 -480.3c-162.93,27.98 -25.49,77.51 -214.45,-21.1 -89.99,-46.96 -156.7,-24.01 -218.01,-101.97 -125.17,-159.15 37.55,-269.03 99.28,-426.43 -67.27,24.59 -45.25,1.49 -99.79,91.02 -131.09,215.2 -90,232.99 -24.48,366.56l-217.1 107.66c-47.84,37 -106.29,91.28 -142.27,150.51l-162.18 472.45c194.89,120.16 277.46,262.67 448.34,477.36 64.02,80.44 129.01,174.12 197.42,255.86l199.93 250.58c142.25,66.48 511.88,-251.13 593.54,-333.02 -16.63,-129.38 -275,-766.9 -352.24,-969.67 -39.6,-103.94 -64.13,-241.46 -107.99,-319.83z"/>
   <path class="fil9" d="M10800.73 4190.28c66.26,-73.75 127.6,-159.86 277.45,-113.59 98.42,30.38 165.57,141.25 129.59,264.41 -59.36,203.17 -453.77,236.74 -407.04,-150.82zm-241.81 329.37l701.95 175.87 258.48 -610 -884.59 -216.94 -75.84 651.07z"/>
   <path class="fil10" d="M13915.15 6721.17c-55.33,-301.41 354.57,-348.4 413.51,-100.42 70.09,294.92 -368.9,343.46 -413.51,100.42zm-251.9 107.94c112.05,12.61 447.9,233.71 561.94,295.16 91.14,-45.85 392.02,-423.48 435.32,-517.9 -117.39,-42.4 -279.45,-135.05 -386.89,-198.41 -111.05,-65.48 -283,-177.14 -393.78,-215.51 -35.27,43.78 -236.13,501.79 -226.42,597.99 0.52,5.14 3.6,15.32 4.25,19.48 0.66,4.16 3.43,12.88 5.58,19.19z"/>
   <path class="fil10" d="M9071.57 1317.32c56.24,429.12 -350.92,348.46 -403.31,167.91 -39.85,-137.34 45.84,-255.91 150.47,-276.28 131.5,-25.6 191.11,50.04 252.84,108.36zm-475.94 -388.51c-11.11,185.69 -167.08,416.5 -209.35,610.74 164.18,66.48 486.72,304.74 638.43,329.55 84.35,-171.04 336.54,-379.17 380.7,-522.58 -260.53,-87.65 -653.31,-385.15 -809.78,-417.71z"/>
   <path class="fil10" d="M9712.79 8030.88c-60.98,-403.82 352.48,-357.23 404.71,-149.44 32.82,130.56 -45.8,226.12 -137.38,254.76 -143.34,44.83 -202.49,-37.7 -267.33,-105.32zm-344.4 -131.06c123.58,180.56 267.53,345.71 393.2,514.71 201.62,-88.83 399.09,-244.67 607.57,-343.68l-222.77 -623.4c-287.69,145.09 -518.21,325.06 -777.99,452.38z"/>
   <path class="fil8" d="M10533.49 4835l18.25 -273.79 670.68 170.57c-54.72,176.15 -56.8,277.6 -267.11,243.24 -125.59,-20.52 -328.61,-80.99 -421.82,-140.01zm101.26 -966.42l884.59 216.94 -258.48 610 -701.95 -175.87 75.84 -651.07zm514.6 82.95c-161.22,-40.77 -345.31,-94.66 -507.43,-125.52l8.25 -126.68c123.7,-11.86 861,169.7 940.84,232.43 -65.64,161.36 15.48,135.35 -441.66,19.77zm-511.73 -421.48l1025.31 268.88c-30.77,131.26 -240.88,27.04 -528.24,-43.86 -428.66,-105.76 -484.74,-64.27 -497.07,-225.03zm135.44 -48.5c0.33,-0.09 680.35,-411.22 787.09,231.88 -115.09,-12.44 -298.7,-66.52 -419.24,-98.97 -188.16,-50.66 -327.31,-50.76 -367.85,-132.91zm0 0c-258.13,62.02 -115.68,-129.98 -200.94,560.94 -33.02,267.64 -78.32,556.29 -91.32,823.86 206.84,80.59 400.7,169.86 665.69,155.25l570.55 -1222.67c-79.51,-139.29 -59.37,47.16 -127.22,-152.27 -55.93,-164.42 -82.53,-149.42 -88.95,-218.5 -21.39,-229.95 201.58,-200.24 356.11,-266.8 -8.92,-6.49 0.47,-29.74 -108.94,-11.94 -26.95,4.38 -120.41,30.54 -148.06,41.19 -133.04,51.25 -109.61,84.89 -134.9,216.31 -335.82,-181.64 -650.64,-65.04 -692,74.63z"/>
   <path class="fil8" d="M13663.25 6829.11c23.96,41.81 0.78,19.9 51.02,57.38 41.52,30.97 16.03,10.23 69.44,38.5 130.5,69.05 330.24,165.69 423.05,247.8l-167.52 201.61c-162.32,-28.17 -249.24,-127.51 -372.28,-147.82l-150.19 -134.53c38.07,-115.14 46.73,-224.63 146.49,-262.94zm0 0c-2.15,-6.3 -4.92,-15.02 -5.58,-19.19 -0.66,-4.16 -3.74,-14.35 -4.25,-19.48 -9.71,-96.21 191.15,-554.21 226.42,-597.99 110.78,38.38 282.73,150.03 393.78,215.51 107.44,63.35 269.5,156.01 386.89,198.41 -43.3,94.42 -344.18,472.05 -435.32,517.9 -114.03,-61.45 -449.89,-282.54 -561.94,-295.16zm277.02 -817.3c121.12,54.64 770.78,403.24 839.06,470.79l-70.49 104.9 -813.8 -452.68 45.23 -123.01zm745.16 250.07c157.68,85.44 150.52,48.38 205.38,146.51 -111.82,60.01 -290.86,-89.57 -512.51,-212.49 -291.97,-161.94 -427.92,-175.33 -426.95,-334.1 122.56,38.34 373.73,193.72 496.09,266.16 91.72,54.29 150.02,86.26 237.99,133.92zm-580.92 -390.82c139.42,-91.85 346.74,-92.53 488.99,-23.87 167.82,81 211.45,177.49 218.68,424.73 -83.78,-27.94 -655.89,-345.48 -707.68,-400.86zm-437.56 1355.52c10.69,22.58 -4.13,30.05 78.46,81.5 2.05,1.27 78.08,39.99 88.38,44.9 193.28,92.04 230.04,94.73 335.87,-50.67l536.63 -659.04c137.23,-164.16 184.16,-175.17 231.31,-238.49 -46.08,-151.88 -54.3,7.36 -85.19,-162.08 -47.55,-260.79 43.71,-204.2 -107.82,-334.56 -320.78,-275.95 -509.34,-117.17 -667.77,-80.43 -211.3,49.01 -102.38,-80.99 -193.95,206.55 -14.8,46.48 -44.03,103.62 -61.76,150.14 -39.14,102.66 -75.3,194.54 -119.42,306.76 -60.56,154.07 -217.98,492.98 -228.83,637.06 87.5,36.52 109.41,82.01 194.11,98.36z"/>
   <path class="fil1" d="M9806.77 2364.37c80.38,176.07 315.61,636.94 425.26,710.02 152.48,-41.11 119.56,-153.95 135.96,-317.97 107.36,-1073.63 -493.16,-502.44 -561.22,-392.05z"/>
   <path class="fil1" d="M12973.03 5260.05c45.29,-249.51 -139.46,-380.65 -315.23,-444.47 -81.74,53.96 -586.7,494.17 -569.79,600.52 28.25,177.76 783.97,-40.16 885.01,-156.05z"/>
   <path class="fil1" d="M12719.44 7472.99c-17.09,54.32 -26.87,88.63 -41.61,143.83 -132.38,495.63 -227.13,723.55 219.87,379.39 732.57,-564.02 165.11,-713.69 -111.06,-676.29l-67.19 153.06z"/>
   <path class="fil0" d="M13253.84 4383.37l334.51 -54.84c197.18,44.84 72.34,154.79 291.95,167.5 191.06,11.05 186.47,-103.39 282.61,-154.83 114.97,-61.51 239.32,11.89 384.71,-17.22 -67.16,311.74 -280.53,547.17 -615.22,560.98 -372.49,15.36 -589.34,-210.88 -678.56,-501.6zm421.41 -132.83c-13.5,-317.05 444.57,-340.51 445.89,-26.23 1.3,310.07 -435.37,273.33 -445.89,26.23zm-61.07 21.96c-114.64,12.53 -83.99,-18.52 -174.73,-1.58 -0.38,0.08 -324.68,177.98 -162.89,-279.55 78.98,-223.35 320.88,-414.57 604.4,-421.1 365.71,-8.42 738.72,337.7 662.61,700.37l-344.94 5.75c-85.86,-143.51 -50.18,-314.46 -292.43,-322.01 -232.13,-7.24 -234.86,135.12 -292.02,318.12zm99.15 -727.29c-906.64,251.96 -538.2,1586.78 351.07,1372.53 329.85,-79.47 629.81,-430.86 515.29,-864.6 -91.36,-346.09 -449.16,-623.86 -866.37,-507.92z"/>
   <path class="fil0" d="M8050.61 9590.28l289.45 -46.66c187,15.02 67.98,20.27 182.64,116.53 158.72,133.24 372.4,43.64 434.07,-123.23 75.36,11.25 314.62,23.98 388.54,16.07 -142.57,741.65 -1116.33,737.94 -1294.7,37.28zm591.6 -358.3c278.1,-84.36 392.95,336.69 148.85,422.93 -320.78,113.32 -422.07,-340.05 -148.85,-422.93zm-580.3 283.33c-121.41,-260.16 247.81,-866.97 829.77,-697.25 413.18,120.51 546.98,638.2 411.22,689.44 -68.44,25.83 -105.67,-7.39 -175.58,-10.91 -323.43,-16.27 -34.02,-8.45 -216.1,-222.1 -50.06,-58.73 -113.22,-98.72 -210.93,-97.21 -234.51,3.6 -238.72,161.54 -283.5,320.38 -120.94,23.08 -69.85,-21.71 -186.42,-0.55 -100.55,18.26 -41.64,53.52 -168.46,18.19zm-61.08 48.4c59.54,346.44 370.59,652.15 804.34,589.82 353.65,-50.83 673.89,-412.43 590.89,-828.91 -185.35,-930.16 -1550.17,-662.37 -1395.24,239.08z"/>
   <path class="fil11" d="M9526.07 3290.52c-90.42,-148.7 -108.88,-319.07 -3.03,-472.76l392.65 291.88c-107.26,123.2 -210.54,195.91 -389.62,180.87zm1099.03 -378.93c-1.08,-6.9 -5.57,-22.58 4.36,-55.45l95.8 -167.3c38.31,-73.57 62.25,-180.13 99.5,-235.25 320.07,76.98 513.63,601.33 -199.66,458zm-516.85 147.51c-140.38,71.81 -392.02,-136.23 -493.93,-228.03 -211.86,-190.87 37.72,-416.88 147.81,-437.17l346.12 665.2zm-301.47 -694.73c68.06,-110.39 668.59,-681.58 561.22,392.05 -16.4,164.01 16.51,276.86 -135.96,317.97 -109.65,-73.08 -344.88,-533.95 -425.26,-710.02zm927.84 200.39c-54.91,146.38 -187.18,413.36 -347.03,436.9 26.36,-319.68 51.73,-462.73 9.93,-787.89 303.63,-27.34 393.61,200.35 337.1,351zm-1253.71 766.17c417.75,36.46 346.51,-180.45 511.06,-205.41 237.29,-36 183.56,21.77 369.4,-58.01l192.74 -95.46c96.21,-42.16 487.2,91.96 593.83,-126.74 45.49,-93.29 -31.85,-216.3 -72.22,-279.95 -74.24,-117.06 -99.17,-95.61 -240.12,-159.18 -114.31,-51.55 -83.32,-106.02 -186.62,-185.84 -110.63,-85.49 -161.3,-33.69 -303.61,-91.16 -312.89,-126.38 -412.53,56.45 -556.63,182.91 -91.66,80.45 -127.02,44.22 -215.66,155.71 -98.36,123.73 -73.52,125.87 -90.96,274.55 -29.96,255.36 -176.79,66.81 -1.23,588.59z"/>
   <path class="fil0" d="M10582.74 6841.54c158.27,9.54 137.21,-33.15 257.37,-27.4 238.66,11.42 86.13,12.9 221.58,122 106.23,85.56 314.44,104.78 431.32,-124.17l376.87 5.44c12.55,422.35 -660.88,800.54 -1099.03,381.79l-27.12 -25.82c-91.68,-92.06 -131.12,-185.05 -161,-331.84zm539.63 -304.16c276.87,-165.68 455.13,225.49 234.86,371.26 -239.45,158.46 -512.45,-205.15 -234.86,-371.26zm-191.35 242.23c-120.78,-8.98 -67.89,-34.08 -168.3,-11.09 -52.82,12.09 -83.57,63.73 -158.06,15 -71.4,-46.71 -21.36,-219.99 11.64,-299.35 318.16,-765.16 1369.07,-364.69 1259.28,275.38 -108.15,50.97 -78.09,20.28 -160.36,7.81 -90.11,-13.65 -90.52,11.71 -203.95,2.36 -23.74,-191.27 -70.18,-329.33 -287.61,-318.89 -254.89,12.25 -195.32,180.16 -292.65,328.78zm979.51 127.51c182.68,-711.71 -619.99,-1112.58 -1084.1,-770.1 -109.04,80.46 -246.66,239.54 -287.02,407.98 -221.5,924.4 1143.5,1248.91 1371.13,362.12z"/>
   <path class="fil11" d="M12551.54 6195.45c-177.95,-108.79 -200.96,-228.58 -220.42,-472.21l505.05 93.4c-15.69,215.24 -115.19,338.21 -284.64,378.81zm-358.04 -643.18c90.58,-54.96 293.74,-56.73 407.74,-83.72 112.55,-26.66 281.41,-126.81 355.87,-102.24 85.35,186.3 -15.2,287.72 -139.92,395.38 -24.64,9.77 -553.19,-23.76 -623.7,-209.41zm779.53 -292.23c-101.04,115.89 -856.76,333.81 -885.01,156.05 -16.91,-106.35 488.05,-546.57 569.79,-600.52 175.77,63.82 360.51,194.96 315.23,444.47zm-921.04 26.57c-104.15,-156.49 122,-1011.4 557.02,-531.32 -17.73,53.7 -486.45,551.9 -557.02,531.32zm-351.97 -536.8c120.74,-82.59 234.91,-167.71 444.83,-92.52l-177.75 448.33c-157.45,-57.47 -287.45,-148.85 -267.08,-355.81zm-50.76 -2.32c-10.29,349.19 230.59,277.89 321.22,456.92 128.39,253.6 -1.78,163.56 133.99,315.69l147.07 173.48c64.23,76.1 102.05,832.48 497.79,428.46 85.24,-87.02 108.48,-139.43 126.37,-277.37 27.43,-211.61 63.7,-86.39 131.2,-236.35 58.84,-130.71 -7.83,-195.96 8.27,-335.58 30.88,-267.72 -90.98,-369.1 -274.17,-468.21 -158.55,-85.79 -137.9,-262.21 -516.09,-211.77 -330.98,44.14 -260.75,-109.84 -575.66,154.74z"/>
   <path class="fil11" d="M12948.63 8258.49c138.22,-30.14 430.1,-146.15 490.21,-139.99 65.97,138.8 62.93,455.76 -112.77,454.82 -182.21,-0.97 -324.8,-194.26 -377.44,-314.83zm-209.75 -54.6c28.01,-67.85 245.98,-207.87 419.74,-397.37l136.76 -162.97c178.27,103.82 183.07,382.82 14.71,471.96 -145.78,77.19 -428.85,148.08 -571.22,88.38zm-477.74 -765.19l68.87 484.08c-557.81,62.24 -486.58,-378.86 -68.87,-484.08zm525.5 -118.78c276.17,-37.4 843.63,112.26 111.06,676.29 -447,344.16 -352.25,116.24 -219.87,-379.39 14.74,-55.21 24.52,-89.51 41.61,-143.83l67.19 -153.06zm-266.43 719.21c-143.84,-43.55 -114.88,-65.58 -166.72,-242.24 -80.82,-275.43 -113.69,-497.98 200.42,-522.25 244.7,-18.9 179.22,10.8 -33.69,764.49zm-642.6 -255.34c114.64,156.96 172.74,215.6 461.4,182.12 314.94,271.96 177.09,201.46 528.8,321.83 179.95,61.58 185.66,378.66 533.83,319.94 88.63,-90 134.1,-174.56 125.19,-340.02 -5.71,-105.97 -32.37,-110.76 -56.72,-183.23 -40.33,-120.03 -8.78,-84.2 0.61,-197.91 17.54,-212.35 -86.64,-181.66 -147.95,-318.55 -178.52,-398.56 -293.55,-239.52 -612.32,-316.49 -129.32,-31.22 -257.73,-37.49 -371.99,52.96 -90.89,71.95 -9.72,50.57 -135.81,101.81 -65.2,26.5 -126.19,38.72 -169.29,71.64 -55.89,42.69 -135.96,186.8 -155.75,305.9z"/>
   <path class="fil1" d="M12520.21 8039.14c212.91,-753.69 278.39,-783.39 33.69,-764.49 -314.1,24.27 -281.24,246.82 -200.42,522.25 51.84,176.66 22.89,198.69 166.72,242.24z"/>
   <path class="fil1" d="M12051.98 5286.62c70.58,20.58 539.29,-477.62 557.02,-531.32 -435.02,-480.08 -661.18,374.83 -557.02,531.32z"/>
   <path class="fil10" d="M12193.49 5552.28c70.52,185.66 599.06,219.18 623.7,209.41 124.71,-107.66 225.27,-209.08 139.92,-395.38 -74.46,-24.57 -243.32,75.58 -355.87,102.24 -114,27 -317.16,28.76 -407.74,83.72z"/>
   <path class="fil1" d="M10108.25 3059.1l-346.12 -665.2c-110.09,20.29 -359.67,246.3 -147.81,437.17 101.91,91.8 353.56,299.84 493.93,228.03z"/>
   <path class="fil10" d="M10387.58 3001.65c159.84,-23.53 292.11,-290.52 347.03,-436.9 56.51,-150.65 -33.47,-378.34 -337.1,-351 41.81,325.16 16.43,468.21 -9.93,787.89z"/>
   <path class="fil1" d="M12738.88 8203.89c142.36,59.7 425.43,-11.18 571.22,-88.38 168.35,-89.14 163.55,-368.13 -14.71,-471.96l-136.76 162.97c-173.77,189.5 -391.73,329.52 -419.74,397.37z"/>
   <path class="fil12" d="M13666.94 7226.58c123.05,20.31 209.96,119.64 372.28,147.82l167.52 -201.61c-92.81,-82.1 -292.55,-178.74 -423.05,-247.8 -53.41,-28.26 -27.92,-7.52 -69.44,-38.5 -50.24,-37.48 -27.06,-15.57 -51.02,-57.38 -99.76,38.31 -108.42,147.8 -146.49,262.94l150.19 134.53z"/>
   <path class="fil9" d="M10533.49 4835c93.2,59.02 296.23,119.49 421.82,140.01 210.3,34.36 212.39,-67.1 267.11,-243.24l-670.68 -170.57 -18.25 273.79z"/>
   <path class="fil6" d="M9800.35 8454.46l174.3 213.92c182.59,-54.48 399.69,-184.17 500.92,-300.13l-77.08 -262.44c-88.51,34.54 -225.12,121.65 -306.27,169.38 -89.65,52.72 -221.42,125.51 -291.87,179.27z"/>
   <path class="fil10" d="M8364.01 1578.67c-45.18,95.56 -87.55,174.86 -86.19,279.51 154.95,95.29 283.72,204.27 501.37,261.11 81.37,-52.18 143.17,-126.36 181.13,-214.96 -173.27,-67.04 -410.88,-236.27 -596.31,-325.66z"/>
   <path class="fil10" d="M10773.06 3481.54c40.54,82.15 179.68,82.25 367.85,132.91 120.54,32.46 304.16,86.53 419.24,98.97 -106.74,-643.1 -786.76,-231.97 -787.09,-231.88z"/>
   <path class="fil1" d="M12948.63 8258.49c52.64,120.57 195.23,313.85 377.44,314.83 175.7,0.94 178.74,-316.02 112.77,-454.82 -60.12,-6.16 -351.99,109.85 -490.21,139.99z"/>
   <path class="fil6" d="M12551.54 6195.45c169.45,-40.6 268.94,-163.57 284.64,-378.81l-505.05 -93.4c19.46,243.63 42.46,363.41 220.42,472.21z"/>
   <path class="fil6" d="M14104.5 5871.06c51.79,55.38 623.89,372.92 707.68,400.86 -7.24,-247.24 -50.87,-343.74 -218.68,-424.73 -142.25,-68.66 -349.57,-67.98 -488.99,23.87z"/>
   <path class="fil12" d="M9393.7 4087.28c-304.86,158.69 -70.6,519.34 184.14,406.37 240.3,-106.55 89.2,-548.65 -184.14,-406.37z"/>
   <path class="fil13" d="M13675.24 4250.54c10.52,247.1 447.2,283.85 445.89,-26.23 -1.33,-314.28 -459.4,-290.82 -445.89,26.23z"/>
   <path class="fil12" d="M11575.24 1247.51c-288.18,117.99 -102.05,526.59 181.27,401.25 244.92,-108.35 109.39,-520.26 -181.27,-401.25z"/>
   <path class="fil14" d="M9210.86 7559.05l693.72 -403.44c-251.41,-273.39 -708.18,-1.22 -693.72,403.44z"/>
   <path class="fil10" d="M8857.83 611.03c56.36,77.4 630.63,374.9 699.26,403.96 9.95,-469.52 -405.95,-558.27 -699.26,-403.96z"/>
   <path class="fil12" d="M8642.21 9231.98c-273.21,82.88 -171.92,536.24 148.85,422.93 244.1,-86.23 129.25,-507.28 -148.85,-422.93z"/>
   <path class="fil12" d="M11122.37 6537.38c-277.59,166.11 -4.59,529.72 234.86,371.26 220.27,-145.77 42,-536.94 -234.86,-371.26z"/>
   <path class="fil1" d="M10625.09 2911.6c713.29,143.33 519.73,-381.01 199.66,-458 -37.25,55.12 -61.19,161.68 -99.5,235.25l-95.8 167.3c-9.93,32.86 -5.44,48.55 -4.36,55.45z"/>
   <path class="fil15" d="M11437.91 2895.69c67.59,-51.29 92.76,-36.01 165.89,-96.47 165.39,-136.74 121.44,-421.52 413.96,-457.05 70.88,254.15 -143.4,466.06 -323.74,545.94 -92.03,40.75 -175.32,55.25 -256.11,7.59zm-69.52 -62.31c-47.89,-300.19 285.25,-610.31 586.01,-538 -164.62,136.93 -165.23,38.19 -269.94,291.65 -53.29,128.97 -158.8,265.71 -316.06,246.35zm398.26 -580.19c-525.07,139.65 -619.28,825.96 -137.06,702.64 507.24,-129.73 637.56,-835.75 137.06,-702.64z"/>
   <path class="fil16" d="M10641.93 3826.01c162.12,30.86 346.21,84.75 507.43,125.52 457.14,115.59 376.03,141.6 441.66,-19.77 -79.84,-62.73 -817.14,-244.29 -940.84,-232.43l-8.25 126.68z"/>
   <path class="fil10" d="M12261.14 7438.7c-417.71,105.22 -488.94,546.32 68.87,484.08l-68.87 -484.08z"/>
   <path class="fil17" d="M13810.35 8174.59c79.79,-47.07 114.06,-38.1 178.1,-95.88 176.48,-159.23 117.53,-424.81 418.87,-452.33 74.36,327.58 -348.57,680.23 -596.97,548.2zm-52.56 -53.3c-61.23,-300.49 265.76,-589.64 584.65,-552.41 -23.46,25.11 -12.11,18.84 -47.22,44.25 -18.68,13.52 -29.61,14.85 -52.43,29.4 -226.13,144.22 -150.42,486.32 -485,478.76zm692.49 -284.36c163.89,-479.85 -567.74,-385.24 -727.19,83.19 -166.88,490.25 561.49,401.98 727.19,-83.19z"/>
   <path class="fil15" d="M9670.52 9022.45l31.4 38.76c80.42,151.6 7.52,161.18 192.55,291.88 138.44,97.79 174.06,164.8 186.03,371.4 -344.99,3.28 -489.07,-387.58 -409.97,-702.04zm71.38 -38.33c334.54,-41.01 581.56,493.76 392.15,697.74 -92.98,-169.64 22.79,-192.59 -194.11,-350.22 -131.7,-95.71 -176.39,-148.04 -198.04,-347.52zm-133.87 340.5c117.93,542.64 731.57,612.53 623.12,63.29 -106.97,-541.73 -747.41,-635.15 -623.12,-63.29z"/>
   <path class="fil9" d="M9254.22 7792.18l81.02 72.95c95.63,-38.24 290.83,-162.27 391.49,-224.3 125.59,-77.38 273.32,-159.99 394.02,-240.93l-47.53 -134.92c-123.61,66.52 -773.61,435.43 -819,527.19z"/>
   <path class="fil16" d="M9526.67 1222.04c-62.48,-55.04 -757.74,-438.28 -846.74,-463.71l-30.11 91.79c29.84,36.48 -52.89,4.62 70.35,83.84l310.53 168.1c134.17,71.92 287.55,181.31 412.65,222.92l83.33 -102.94z"/>
   <path class="fil10" d="M11700.01 4749.81c-20.37,206.96 109.63,298.34 267.08,355.81l177.75 -448.33c-209.92,-75.19 -324.1,9.93 -444.83,92.52z"/>
   <path class="fil15" d="M8570.95 2922.26c150.17,-126.83 202.92,-60.56 289.16,-291.69 37.28,-99.89 38.21,-116.99 113.51,-178.56 176.88,-144.6 178.12,-64.36 185.05,-61.07 88.03,278.01 -348.9,664.8 -587.72,531.32zm-68.42 -76.19c-54.11,-272.08 274.2,-596.16 588.26,-526.11 -167.15,138.56 -168.91,42 -271.93,296.58 -43.56,107.63 -117.11,203.18 -218.81,235.75 -142.69,45.7 -74.45,3.76 -97.52,-6.22zm404.77 -575.96c-108.48,26.25 -183.89,68.44 -247,135.07 -55.45,58.53 -122.51,105.46 -168.82,202.49 -114.74,240.4 3.03,441.91 267.29,375.75 499,-124.92 646.08,-833.73 148.53,-713.3z"/>
   <path class="fil18" d="M10001.22 6145.48c50.91,-27.62 76.22,-38.39 122.46,-153.79 95.58,-238.54 -109.52,-143.94 105.71,-604.77 -249.71,47.05 -349.54,358.06 -331.06,561.73 10.63,117.21 41.03,153.07 102.89,196.84z"/>
   <path class="fil19" d="M10578.19 7487.3c99.54,391.61 329.57,185.87 502.44,491.4 14.5,25.63 12.98,30.74 28.49,54.37 26,39.63 16.82,26.1 43.32,52.89 31.69,-204.45 -29.87,-318.71 -138.82,-437.14 -60.93,-66.24 -278.67,-267.32 -435.42,-161.52z"/>
   <path class="fil16" d="M12179.62 3737.91c-124.17,262.93 321.61,681.5 519.32,579.15 53.2,-27.54 4.21,-216.84 -201.71,-304.83 -273.48,-116.85 -194.48,-140.53 -317.61,-274.32z"/>
   <path class="fil18" d="M13336.14 5961.75c99.88,-28.04 83.86,-22.03 139.61,-122.29 134.02,-240.97 -95.06,-143.78 120.07,-641.6 -163.07,46.09 -220.82,118.56 -287.48,287.4 -66.36,168.09 -30.44,350.03 27.79,476.5z"/>
   <path class="fil16" d="M13605.77 9942.83c86.07,-35.11 27.78,24.2 85.37,-64.46 132.6,-204.14 9.18,-756.09 -279.82,-702.94 -15.63,474.26 262.8,307.05 194.45,767.4z"/>
   <path class="fil16" d="M10293.44 5400.21c-253.23,204.51 40.85,350.37 -225.42,770.98 171.79,-34.14 269.75,-162.15 322.13,-336.72 54.96,-183.16 35.13,-362.96 -96.71,-434.26z"/>
   <path class="fil16" d="M8570.95 2922.26c238.82,133.49 675.75,-253.31 587.72,-531.32 -6.93,-3.29 -8.17,-83.53 -185.05,61.07 -75.3,61.57 -76.24,78.67 -113.51,178.56 -86.25,231.13 -139,164.86 -289.16,291.69z"/>
   <path class="fil16" d="M8171.39 3913.74c-44.46,461.57 236.16,281.41 191.63,778.7 234.6,-97.96 160.68,-771.5 -191.63,-778.7z"/>
   <path class="fil15" d="M13436.91 5977.02c263.81,-331.26 -37.51,-540.51 230.39,-762.97 251.12,181.81 69.51,747.98 -230.39,762.97zm-100.77 -15.27c-58.23,-126.47 -94.15,-308.41 -27.79,-476.5 66.67,-168.84 124.41,-241.31 287.48,-287.4 -215.13,497.82 13.95,400.64 -120.07,641.6 -55.76,100.26 -39.74,94.25 -139.61,122.29zm196.34 -792.19c-391.01,137.36 -424.26,968.89 -13.45,846.41 357.68,-106.65 448,-999.06 13.45,-846.41z"/>
   <path class="fil16" d="M13561.37 9961.74c59.75,-508.1 -223.1,-302.81 -185.26,-778.88 -138.36,85.85 -151.84,289.34 -106.88,459.05 45,169.89 120.83,295.09 292.14,319.83z"/>
   <path class="fil17" d="M13561.37 9961.74c-171.3,-24.75 -247.13,-149.95 -292.14,-319.83 -44.96,-169.71 -31.48,-373.19 106.88,-459.05 -37.84,476.08 245.01,270.79 185.26,778.88zm-150.04 -786.31c289,-53.15 412.42,498.8 279.82,702.94 -57.59,88.66 0.69,29.35 -85.37,64.46 68.35,-460.35 -210.08,-293.14 -194.45,-767.4zm-185.65 467.97c137.18,574.27 690.13,416.18 539.49,-177.53 -142.19,-560.39 -677.15,-398.75 -539.49,177.53z"/>
   <path class="fil17" d="M12497.22 4012.23c205.92,87.99 254.91,277.29 201.71,304.83 -197.7,102.35 -643.49,-316.22 -519.32,-579.15 123.12,133.79 44.13,157.47 317.61,274.32zm-5.2 -48.62c-146.22,-57.67 -244.03,-138.42 -274.8,-286.81 180.54,-112.08 629.88,130.25 574.56,581.56l-69.99 -98.99c-14.71,-31.32 -31.39,-68.52 -45.58,-86.88 -39.53,-51.16 -96.11,-74.14 -184.19,-108.88zm-273.97 -321.94c-43.33,27.35 -48.84,-15.67 -88.32,84.31 -119.31,302.11 367.54,801.13 633.79,603.32 289.22,-214.86 -233.68,-884.42 -545.46,-687.63z"/>
   <path class="fil15" d="M8124.61 3940.36c-17.92,472.5 254.14,288.47 192.3,756.04 -274.52,24.01 -445.04,-566.07 -192.3,-756.04zm46.78 -26.63c352.31,7.2 426.22,680.75 191.63,778.7 44.53,-497.3 -236.09,-317.14 -191.63,-778.7zm-71 -3.65c-39.05,29.48 -45.7,11.4 -89.35,78.86 -99.55,153.86 -67.38,514.53 129.88,688.08 278.13,244.7 486.6,-133.73 368.53,-500.41 -48.35,-150.13 -219.11,-409.97 -409.06,-266.53z"/>
   <path class="fil16" d="M11065.66 8138.62c6.91,-16.97 14.53,-10.62 11.81,-53.85 -7.88,-125.02 -135.63,-217.05 -242.39,-258.02 -213.1,-81.79 -179.28,-131.03 -297.14,-277.09 -55.33,200.94 37.11,326.51 144.13,430.28 89.7,86.98 202.55,206.33 383.59,158.69z"/>
   <path class="fil16" d="M13757.79 8121.29c334.58,7.56 258.87,-334.53 485,-478.76 22.82,-14.55 33.75,-15.88 52.43,-29.4 35.11,-25.41 23.76,-19.14 47.22,-44.25 -318.89,-37.23 -645.88,251.92 -584.65,552.41z"/>
   <path class="fil19" d="M13436.91 5977.02c299.9,-14.99 481.51,-581.16 230.39,-762.97 -267.9,222.47 33.42,431.71 -230.39,762.97z"/>
   <path class="fil16" d="M8502.53 2846.07c23.07,9.98 -45.17,51.92 97.52,6.22 101.7,-32.57 175.25,-128.12 218.81,-235.75 103.02,-254.58 104.78,-158.02 271.93,-296.58 -314.06,-70.05 -642.37,254.03 -588.26,526.11z"/>
   <path class="fil13" d="M9526.07 3290.52c179.07,15.03 282.35,-57.68 389.62,-180.87l-392.65 -291.88c-105.84,153.69 -87.38,324.05 3.03,472.76z"/>
   <path class="fil18" d="M9670.52 9022.45c-79.1,314.46 64.98,705.31 409.97,702.04 -11.97,-206.6 -47.59,-273.6 -186.03,-371.4 -185.03,-130.7 -112.13,-140.28 -192.55,-291.88l-31.4 -38.76z"/>
   <path class="fil19" d="M9741.9 8984.12c21.65,199.48 66.34,251.81 198.04,347.52 216.9,157.63 101.13,180.58 194.11,350.22 189.41,-203.99 -57.61,-738.75 -392.15,-697.74z"/>
   <path class="fil16" d="M12217.22 3676.81c30.77,148.39 128.58,229.14 274.8,286.81 88.08,34.75 144.66,57.72 184.19,108.88 14.19,18.36 30.87,55.56 45.58,86.88l69.99 98.99c55.32,-451.3 -394.02,-693.64 -574.56,-581.56z"/>
   <path class="fil18" d="M8124.61 3940.36c-252.74,189.97 -82.23,780.06 192.3,756.04 61.84,-467.57 -210.22,-283.54 -192.3,-756.04z"/>
   <path class="fil16" d="M11437.91 2895.69c80.79,47.66 164.08,33.16 256.11,-7.59 180.35,-79.88 394.63,-291.79 323.74,-545.94 -292.52,35.54 -248.57,320.32 -413.96,457.05 -73.13,60.46 -98.3,45.18 -165.89,96.47z"/>
   <path class="fil10" d="M13895.03 6134.82l813.8 452.68 70.49 -104.9c-68.28,-67.55 -717.94,-416.15 -839.06,-470.79l-45.23 123.01z"/>
   <path class="fil16" d="M13810.35 8174.59c248.4,132.02 671.33,-220.62 596.97,-548.2 -301.34,27.52 -242.38,293.09 -418.87,452.33 -64.04,57.77 -98.31,48.81 -178.1,95.88z"/>
   <path class="fil16" d="M11368.39 2833.38c157.27,19.35 262.78,-117.38 316.06,-246.35 104.72,-253.45 105.33,-154.72 269.94,-291.65 -300.76,-72.31 -633.9,237.81 -586.01,538z"/>
   <path class="fil17" d="M10537.94 7549.66c117.87,146.06 84.04,195.3 297.14,277.09 106.76,40.97 234.51,133 242.39,258.02 2.73,43.23 -4.9,36.88 -11.81,53.85 -181.05,47.65 -293.89,-71.71 -383.59,-158.69 -107.02,-103.76 -199.46,-229.34 -144.13,-430.28zm542.69 429.05c-172.87,-305.53 -402.9,-99.79 -502.44,-491.4 156.75,-105.8 374.49,95.28 435.42,161.52 108.95,118.43 170.51,232.69 138.82,437.14 -26.5,-26.79 -17.31,-13.26 -43.32,-52.89 -15.51,-23.63 -13.99,-28.74 -28.49,-54.37zm-505.17 -539.89c-64.32,86.88 -115.82,116.31 -96.53,262.87 29.43,223.64 340.15,574.44 605.08,477.5 300.09,-109.8 24.43,-809.48 -508.55,-740.37z"/>
   <path class="fil17" d="M10293.44 5400.21c131.84,71.3 151.67,251.1 96.71,434.26 -52.38,174.56 -150.34,302.57 -322.13,336.72 266.26,-420.61 -27.81,-566.46 225.42,-770.98zm-292.23 745.27c-61.86,-43.77 -92.26,-79.63 -102.89,-196.84 -18.48,-203.67 81.35,-514.68 331.06,-561.73 -215.24,460.83 -10.14,366.24 -105.71,604.77 -46.24,115.4 -71.55,126.17 -122.46,153.79zm163.83 -785.13c-414.55,155.37 -411.01,990.31 1.01,836.51 335.54,-125.25 428.91,-997.64 -1.01,-836.51z"/>
   <path class="fil20" d="M14890.8 6408.4c-54.86,-98.13 -47.7,-61.07 -205.38,-146.51 -87.96,-47.66 -146.26,-79.63 -237.99,-133.92 -122.36,-72.44 -373.53,-227.83 -496.09,-266.16 -0.97,158.77 134.98,172.17 426.95,334.1 221.64,122.93 400.69,272.51 512.51,212.49z"/>
   <path class="fil20" d="M9636.69 1107.42c-242.13,-93.2 -765.2,-452.69 -935.18,-499.17 -3.18,162.44 153.54,171.05 450.55,345.12 355.81,208.53 406.63,280.34 484.63,154.05z"/>
   <path class="fil20" d="M11662.93 3798.93l-1025.31 -268.88c12.33,160.75 68.41,119.27 497.07,225.03 287.36,70.9 497.47,175.11 528.24,43.86z"/>
   <path class="fil21" d="M9140.48 7677.54c57.37,54.75 31.13,64.3 114.64,26.51l731.46 -440.4c89.39,-54.14 88.22,-18.82 62.67,-134.89 -130.98,55.82 -320.33,179.93 -448.06,255.51l-460.71 293.28z"/>
   <path class="fil14" d="M9838.31 8094.01l144.68 8.29c44.51,-49.17 175.36,-181.18 44.75,-292.79 -40.36,-34.49 -123.51,-52.54 -184.82,-26.34 -93.22,39.83 -174.81,162.7 -4.61,310.84z"/>
   <path class="fil10" d="M14030.57 6824.86l181.52 8.95 60.06 -79.41c27.67,-160.23 -30.17,-304.77 -221.2,-235.9 -145.49,52.46 -102.04,190.66 -20.38,306.36z"/>
   <path class="fil13" d="M8802.07 1256.71c-187.75,182.76 -64.75,370.25 118.9,320.69 158.3,-42.71 197.3,-344.98 -118.9,-320.69z"/>
   <path class="fil14" d="M10921.39 4432.56c148.32,19.35 250.76,-1.75 248.61,-155.04 -2.04,-145.77 -100.8,-174.44 -246.94,-156.24 -105.71,140.12 -115,171.05 -1.67,311.28z"/>
   <path class="fil22" d="M8802.07 1256.71c316.2,-24.29 277.2,277.98 118.9,320.69 -183.65,49.56 -306.65,-137.94 -118.9,-320.69zm269.5 60.61c-61.73,-58.32 -121.35,-133.96 -252.84,-108.36 -104.63,20.37 -190.32,138.94 -150.47,276.28 52.39,180.54 459.55,261.21 403.31,-167.91z"/>
   <path class="fil23" d="M10921.39 4432.56c-113.33,-140.23 -104.03,-171.16 1.67,-311.28 146.14,-18.19 244.9,10.47 246.94,156.24 2.15,153.29 -100.29,174.39 -248.61,155.04zm-120.67 -242.29c-46.73,387.56 347.69,353.99 407.04,150.82 35.98,-123.16 -31.18,-234.03 -129.59,-264.41 -149.86,-46.27 -211.19,39.84 -277.45,113.59z"/>
   <path class="fil23" d="M14030.57 6824.86c-81.65,-115.71 -125.1,-253.9 20.38,-306.36 191.03,-68.87 248.87,75.67 221.2,235.9l-60.06 79.41 -181.52 -8.95zm-115.42 -103.69c44.61,243.05 483.59,194.5 413.51,-100.42 -58.93,-247.99 -468.83,-200.99 -413.51,100.42z"/>
   <path class="fil8" d="M9838.31 8094.01c-170.2,-148.15 -88.61,-271.01 4.61,-310.84 61.31,-26.2 144.46,-8.15 184.82,26.34 130.61,111.61 -0.25,243.62 -44.75,292.79l-144.68 -8.29zm-125.52 -63.14c64.84,67.62 123.99,150.15 267.33,105.32 91.58,-28.64 170.2,-124.2 137.38,-254.76 -52.23,-207.79 -465.69,-254.38 -404.71,149.44z"/>
   <path class="fil24" d="M14296.39 1008.59c153.03,-55.81 354.46,-244.26 141.32,-401.25 -57.49,154.21 -68.11,240.33 -141.32,401.25z"/>
   <path class="fil25" d="M12279.66 9264.71c143.85,-83.36 255,-306.85 20.02,-410.23 35.55,154.19 30.28,263.66 -20.02,410.23z"/>
   <path class="fil10" d="M9058.34 6253.87c152.24,-83.82 314.37,-239.43 141.03,-397.47 -45.46,86.35 -48.16,279.19 -141.03,397.47z"/>
   <path class="fil10" d="M13517.18 2878.7c187.37,-78.71 269.65,-240.48 145.56,-398.7 -57.73,105.87 -61.54,298.05 -145.56,398.7z"/>
  </g>
 </g>
</svg>
