<svg width="52" height="53" viewBox="0 0 52 53" fill="none" xmlns="http://www.w3.org/2000/svg">
<path d="M11.7705 16.5392C12.0387 14.4891 14.7959 11.7028 16.9841 12.0119L16.9806 12.0086C19.11 12.3996 20.7958 15.9414 21.7463 17.5339C22.4198 18.6894 21.9825 19.8602 21.3543 20.3542C20.5068 21.0142 19.1816 21.9249 19.4596 22.8394C19.954 24.465 25.8228 30.1362 28.7093 31.7484C29.8018 32.3586 30.5941 30.7491 31.2707 29.9245C31.7622 29.2903 32.9747 28.9112 34.1678 29.5373C35.9495 30.54 37.628 31.7053 39.1802 33.0172C39.9553 33.6433 40.1373 34.5686 39.6002 35.5465C38.6541 37.269 35.9178 39.5404 33.9316 39.0788C30.4624 38.2728 16.4327 33.0172 11.9262 17.7911C11.6728 17.0708 11.7366 16.7985 11.7705 16.5392Z" fill="#83593B"/>
<path fill-rule="evenodd" clip-rule="evenodd" d="M25.8228 50.5522C22.9504 50.5522 21.3611 50.2544 18.7802 49.418L13.8373 51.8062C10.7156 53.3146 7.04258 51.1209 7.04258 47.7481V42.6125C1.9873 38.0574 0 32.8052 0 25.5989C0 11.8175 11.5613 0.645508 25.8228 0.645508C40.0842 0.645508 51.6456 11.8175 51.6456 25.5989C51.6456 39.3802 40.0842 50.5522 25.8228 50.5522ZM11.7376 40.6396L10.2445 39.2942C6.31689 35.7553 4.69505 31.7989 4.69505 25.5989C4.69505 14.3232 14.1543 5.18248 25.8228 5.18248C37.4914 5.18248 46.9505 14.3232 46.9505 25.5989C46.9505 36.8746 37.4914 46.0153 25.8228 46.0153C23.5088 46.0153 22.4236 45.8134 20.2731 45.1165L18.4245 44.5174L11.7376 47.7481V40.6396Z" fill="#83593B"/>
</svg>
